/* XPM */
static char *result[] = {
/* columns rows colors chars-per-pixel */
"50 50 244 2 ",
"   c #0C0300",
".  c #060301",
"X  c #120300",
"o  c #1B0904",
"O  c #18130F",
"+  c #280902",
"@  c #380B01",
"#  c #28120A",
"$  c #3B1508",
"%  c #2F1A13",
"&  c #31352E",
"*  c #2F211E",
"=  c #441609",
"-  c #48160D",
";  c #47291A",
":  c #5A2915",
">  c #7B2B0B",
",  c #7A2704",
"<  c #7B2E14",
"1  c #68371D",
"2  c #783618",
"3  c #743014",
"4  c #4E342C",
"5  c #673928",
"6  c #753D26",
"7  c #751F06",
"8  c #344237",
"9  c #4D4439",
"0  c #664633",
"q  c #774636",
"w  c #784B33",
"e  c #114B51",
"r  c #265A5C",
"t  c #3D4642",
"y  c #19635C",
"u  c #176E6C",
"i  c #276567",
"p  c #356A6B",
"a  c #33777A",
"s  c #2B7A74",
"d  c #22605E",
"f  c #575A57",
"g  c #484E4A",
"h  c #6D5745",
"j  c #55625D",
"k  c #6C6651",
"l  c #477979",
"z  c #597978",
"x  c #536A69",
"c  c #79766B",
"v  c #687675",
"b  c #757975",
"n  c #696966",
"m  c #4D5F6B",
"M  c #852C0B",
"N  c #84320D",
"B  c #8A360B",
"V  c #873616",
"C  c #973C14",
"Z  c #8F3511",
"A  c #893D25",
"S  c #9C441C",
"D  c #9C4A1C",
"F  c #994419",
"G  c #8C451B",
"H  c #A24319",
"J  c #A34A1E",
"K  c #A44518",
"L  c #8A462A",
"P  c #9C4A23",
"I  c #9A4927",
"U  c #8A5539",
"Y  c #965638",
"T  c #914F32",
"R  c #A44C24",
"E  c #A64A25",
"W  c #A9542B",
"Q  c #B3562A",
"!  c #AD5B33",
"~  c #A75A39",
"^  c #B35C33",
"/  c #BB5D34",
"(  c #B45D3A",
")  c #BA5D3B",
"_  c #B15634",
"`  c #AC613B",
"'  c #B4623D",
"]  c #BC623C",
"[  c #B86437",
"{  c #B9703D",
"}  c #C35D37",
"|  c #C2653D",
" . c #C4693E",
".. c #CB6C3E",
"X. c #C46338",
"o. c #D1673F",
"O. c #875845",
"+. c #9A5A43",
"@. c #B05D46",
"#. c #96644C",
"$. c #8A6954",
"%. c #966B53",
"&. c #8D6651",
"*. c #AD6144",
"=. c #A76747",
"-. c #B46442",
";. c #BC6542",
":. c #BC6B44",
">. c #BC6D4B",
",. c #B46948",
"<. c #B9724B",
"1. c #A86752",
"2. c #B86856",
"3. c #B87353",
"4. c #AE7059",
"5. c #AE7B64",
"6. c #8D6F64",
"7. c #C26442",
"8. c #C46B44",
"9. c #CA6C44",
"0. c #C46C4A",
"q. c #CB6E4B",
"w. c #CA6340",
"e. c #D36D47",
"r. c #C47145",
"t. c #CC7246",
"y. c #C4734C",
"u. c #CB734C",
"i. c #CB794B",
"p. c #D4754B",
"a. c #D4794D",
"s. c #D7744A",
"d. c #C46E57",
"f. c #C47353",
"g. c #CB7552",
"h. c #CD7A53",
"j. c #C87A57",
"k. c #D17352",
"l. c #D57C54",
"z. c #DA7D54",
"x. c #D87B58",
"c. c #D06E51",
"v. c #CC7561",
"b. c #E27755",
"n. c #778176",
"m. c #818378",
"M. c #BB8868",
"N. c #B1886F",
"B. c #CB8159",
"V. c #DC8255",
"C. c #D5815B",
"Z. c #DB835B",
"A. c #D78458",
"S. c #E3855A",
"D. c #E38458",
"F. c #C88867",
"G. c #D98765",
"H. c #C89376",
"J. c #D69371",
"K. c #E58C65",
"L. c #E4926B",
"P. c #D4A27D",
"I. c #3A7E81",
"U. c #4E7D88",
"Y. c #637F80",
"T. c #398586",
"R. c #299598",
"E. c #358E8D",
"W. c #1C8A81",
"Q. c #46898A",
"!. c #568A8A",
"~. c #478C96",
"^. c #4B9C9C",
"/. c #479597",
"(. c #589798",
"). c #508B91",
"_. c #6A8887",
"`. c #778889",
"'. c #65918B",
"]. c #78938A",
"[. c #679699",
"{. c #789799",
"}. c #6D8E94",
"|. c #53A29D",
" X c #74A29E",
".X c #4A99A0",
"XX c #569CA4",
"oX c #5E9FB1",
"OX c #649FA4",
"+X c #769BA3",
"@X c #4DA1A2",
"#X c #58A5A8",
"$X c #5CB0B5",
"%X c #6DABAB",
"&X c #67A6A8",
"*X c #73ACAC",
"=X c #76A7A8",
"-X c #77ABB3",
";X c #68B6B9",
":X c #78B5B8",
">X c #6FB0B0",
",X c #70C2BE",
"<X c #7CBBC3",
"1X c #66BBC8",
"2X c #6CC8C6",
"3X c #78C8C8",
"4X c #76D0CE",
"5X c #78CBD3",
"6X c #79D7DB",
"7X c #7BD7E2",
"8X c #889997",
"9X c #8B8D8C",
"0X c #8BA699",
"qX c #84A4A5",
"wX c #86B7B8",
"eX c #93B6B7",
"rX c #87ACB0",
"tX c #CE9C81",
"yX c #9AC3BF",
"uX c #87BDC3",
"iX c #88C9C9",
"pX c #97C8C9",
"aX c #88D6CE",
"sX c #8ACCD3",
"dX c #87D6D9",
"fX c #96D7D7",
"gX c #95CDD2",
"hX c #A5CECD",
"jX c #AED4D4",
"kX c #8DE4DA",
"lX c #A9E1DB",
"zX c #89DBE7",
"xX c #95DAE4",
"cX c #88E5E4",
"vX c #97E7E8",
"bX c #91EAF2",
"nX c #AFEBED",
"mX c #A2DFE4",
"MX c #E4FEFC",
"NX c #EBFEFF",
"BX c #F5FEFD",
"VX c #F9FFFF",
"CX c #CFF0EF",
"ZX c None",
/* pixels */
"ZXZXZXZXZXZXZXZXZXZXZXZXZXZXZXZXZXZXZXCXlXkX,XW.R.R.R.R.W.W.kXkXxXMXNXZXZXZXZXZXZXZXZXZXZXZXZXZXZXZX",
"ZXZXZXZXZXZXZXZXZXZXZXZXZXZXZXZXZXZXjXwXd s ,X6X6X6X7X6X6XkX|.y n.gXCXZXZXZXZXZXZXZXZXZXZXZXZXZXZXZX",
"ZXZXZXZXZXZXZXZXZXZXZXZXZXZXZXZXjXrXp =XfXkX6X,X@X/.^..X$X<XaXvXdXa p gXnXZXZXZXZXZXZXZXZXZXZXZXZXZX",
"ZXZXZXZXZXZXZXZXZXZXZXZXZXZXZX-Xi ,XmX:X/.Q.(.gXiX[.[.[.gX3XQ.).~.zXvXT.l hXZXZXZXZXZXZXZXZXZXZXZXZX",
"ZXZXZXZXZXZXZXZXZXZXZXZXZX:Xi $XvXsX<XoXOX[.=X X`.j v v {.rX+X-XoX1X<XcXdXa p jXZXZXZXZXZXZXZXZXZXZX",
"ZXZXZXZXZXZXZXZXZXZXZXZX=X^.nX;XE.Q.uXuX}.l v * o # + o O g Y.m rXuX&XT.^.vXfX!.hXZXZXZXZXZXZXZXZXZX",
"ZXZXZXZXZXZXZXZXZXZXZXrX!.vX;X$XOX=XY.}.`.  o 4 6 1 3 5 5 ; + 4 9X`.'.#X|.;X3XiXQ.hXZXZXZXZXZXZXZXZX",
"ZXZXZXZXZXZXZXZXZXZX=X(.gXa >XsX+Xx f o # 5 5 O.+.I T L U 6 5 ; # o f n.wXiX~.oXiXQ.jXZXZXZXZXZXZXZX",
"ZXZXZXZXZXZXZXZXZXrX(.sXQ.OX}.+X9XX 4 5 O.Y A d.x.7.0.d.>.G Y ` 6 0 + & 8X}.+X).&X,X!.jXZXZXZXZXZXZX",
"ZXZXZXZXZXZXZXZXZXe nXOXOX{.`.4 o 0 U A @.x._ 0.b.7.7.@.' F i.A.` L w - # n }.+X!.fX%Xx MXZXZXZXZXZX",
"ZXZXZXZXZXZXZXZXuX<X<XsXrXb g + #.=.@.l.;.} E w.x.7.d.0.-.F i.A.r.:.+.+.q + n 8XiXiX:X=XjXZXZXZXZXZX",
"ZXZXZXZXZXZXZXZXe mXT.-XeX& @ 1 =.L.) } e.e.Q 8.x.@.2.7.' P p.t.X.u.i.f.6 5 # Y.eXl iX&Xl MXZXZXZXZX",
"ZXZXZXZXZXZXZXwX<XoXoX+Xf o h A ' V.s.} e.e.S 8.Z.( >.r.` P x.s.w.e.t.:.I 1.4 X `.(.#X:X*XhXVXZXZXZX",
"ZXZXZXZXZXZXZXe xXXX[.Y.f ; U ~ ! S.} e.9.] W 8.Z.] h.a.' S c.s./ 9.a.^ ~ F.w % c {.Q.4X|.!.NXZXZXZX",
"ZXZXZXZXZXZX=X:X1XsXuXY.X q 1.I ) b.w.e.8.0.D { V.| ..../ H b.b.} p.a.[ G j.4.@ o {.aX4X2X#XjXZXZXZX",
"ZXZXZXZXZXZXe xXOXuXqX4 ; O.3.I ) S.w.q.g.0.F r.V.X.o...} K e.e.w.7.r.' D B.3.1 % v :X$X2X@X}.NXZXZX",
"ZXZXZXZXZXZXi sXXX}.n o h =.3.P ^ S.} t.u.] R 8.z.X.s...X.C s.s.) 0.q.[ D A.<.+.= * _.).2X#X=XBXZXZX",
"ZXZXZXZXZXZXy zXXX+Xb X U 3.~ W Q D./ 9.q.] R 8.z. .9.9.X.H p.z.) 0.q.[ J B.f.=.= 4 8X).sX^.}.MXZXZX",
"ZXZXZXZXZXOXsX$XoX}.g ; L =.-.W ^ Z.( 8.y.-.E :.l.0.8.9.7.E k.h.-.:.t...R l.y.=.w # m XX#X5X#XhXZXZX",
"ZXZXZXZXZXe zX7XxX-X. O.M.,.>.P ^ Z.[ 8.>.;.I 0.Z.8.8.t.7.C g.g.' ] s.o.J l.0.*.1.% g sX4XbX#X(.ZXZX",
"ZXZXZXZXZXa zX1X<X}.X 6.J.-.y.W / S.X. .r.8.R t.K. .9.p.8.C s.V.{ { a.o.K D.k.3.1.$ j wX;X6XE.:XZXZX",
"ZXZXZXZXZXi dX^.}.n + Y f.[ ' F Q z.Q Q ^ [ S ] z.Q / ../ C ..t.! Q X.Q H k.| ( =.@ O '.T.4X#X>XZXZX",
"ZXZXZXZXZXp iX(.].m.: L W S P P F Q K F R S C J Q K K K K C J W F D F K C Q J C P 2 h 9Xn.3X/.%XZXZX",
"ZXZXZXZXZXr fX X].k M.h.u.i.x.u.z.t.z.t.A.u.C.i.t.a.p.a.t.z.u.a.i.V.t.z.a.9.B.A.y.F.5.c (.aX(.*XZXZX",
"ZXZXZXZXZXr fXhX0X9 P.<.B.D.G.h.l.h.u.L.G.g.3.G.h.h.L.G.y.j.h.f.k.L.x.u.l.u.G.G.i.F.O.c eXnX(.=XZXZX",
"ZXZXZXZXZXi fX%X].k M.W [ [ ' ! ( ' ~ ,.*.~ @.~ *.-.' ' ! -.*.( @.2.@.) -.~ ~ ,.` =.h c '.gX(.-XZXZX",
"ZXZXZXZXZXi zX^.'.n.0 2 > , > V > M > , > 2 V < > M , , N N > < < 7 M V M V > 7 2 1 h ].!.iX(.&XZXZX",
"ZXZXZXZXZXu 7X.X[.z X 1 G > B , N Z N M N V , N V N N N B , N V < M V M 7 A V V 6 @ & '.Q.3X#X:XZXZX",
"ZXZXZXZXZXu zX1X<X`.o #.F.~ 3.I ^ D. . .] ] P 8.l.] |  .[ R 8.g.*.2.0._ E j.d.d.,.$ 9 *X#X6X@X%XZXZX",
"ZXZXZXZXZXi bX7XfXqX. &.H.<.3.I ^ S.9.9.;.8.S 0.K. . .t. .J l.l.,.>.0.( ~ G.d.d.1.= j pXaXbX|.%XZXZX",
"ZXZXZXZXZXi sXoX%X].  %.F.` ` Y _ S.| q.;.;.P 0.x.7.7.9.8.P g.g.>.<.{ ` P x.k.g.f.- 9  X#X6X/.*XZXZX",
"ZXZXZXZXZXp dX.X[.v   %.M.U Y T ] x.] u.>.' W ;.x.t.8.8.9.D h.h.;.:.y.{ D A.A.y.d.1 9 ].E.4X/.%XZXZX",
"ZXZXZXZXZXi fX/.[.x   $.N.w N.@ -.D.8.t.0.-.P 8.C. .u.c.] S u.a.:.f.j.` D V.A.0.d.: 9 {.I.2X.X%XMXZX",
"ZXZXZXZXZXi dX;XwX{.. $.5.#.N.: ' V.] 0.y.:.D 8.V.] q.u.| S u.A.;.>.y.` D V.a.:.2.- f uX<XzX^.&XMXBX",
"ZXZXZXZXZXr bXzXfXeX. $.H.U w ~ ^ V.) 8.g.;.P 9.z.] c.g.| S t.a.] 0.y.` J V.s.0.v.- m uX3XvX@X*XNXBX",
"ZXZXZXZXZXi zX.XOX_.. $.H.Y L ~ ^ D.) ;.g.:.D 8.l.) q.p. .F i.a.;.r.r.! J D.s.q.2.$ t }./.4X^.*XNXVX",
"ZXZXZXZXZXi xXoX#Xn.  $.H.T T ~ ^ D.] ] y.0.D  .z.] c.k.7.S p.a.] 0.r.! J V.s.c.,.- 8 [.Q.4X#X%XNXVX",
"ZXZXZXZXZXi zXE.(.z   $.M.Y Y T ^ D.] ;.g.0.R 9.z./ q.k.} H p.p.| 8.r.! J s.e.e.,.= 8 (.T.2X^.=XNXVX",
"ZXZXZXZXZXd cX2X<X=X. $.tXU w *.' V.] ;.0.0.W  .A./ q.k.7.H e.p.| u.y.! J s.o.p.2.- g iX;XcX#X=XNXVX",
"ZXZXZXZXZXy cX4XaXqX  $.N.Y O.L ! V.] 7.0.8.E 8.x./ q.k.;.H p.s.7.p.u.! Q b.o.a.v.$ g iX4XcXXX*XNXZX",
"ZXZXZXZXZXi zX.X(.v   $.5.%.N.@ { V.( ;.;.0.E  .l.] q.p.| H s.s.8.g.y.! J b.e.d.2.- & |./.4X.X>XZXZX",
"ZXZXZXZXZXi 7X.X&X_.. $.N.O.%.2 ` V.] 8.7.q.W 8.z.) 7.k.7.K s.s.w.u.u.' E x.q.0.1.$ t  X/.4XXX>XZXZX",
"ZXZXZXZXZXp zXE.~.z . $.H.+.+.+.[ V.] ] 0.0.E 9.l.] -.0.) H t.D.8.8.g.( E z.q.0.2.- & }.I.5X.X<XZXZX",
"ZXZXZXZXZXd zX5XsXrX. &.H.@.v.E ^ Z.) ;.0.9.E 9.l.[ 8.7.) H s.D. .;.u.( R x.0.>.2.@ j uXiXzX.XoXZXZX",
"ZXZXZXZXZXr xXsXpX{.X %.v.-.;.P ^ V.[ 8.7.q.W  .A.! ;.8.] S p.s./ ] u.;.E x.8.-.1.$ h eXwXdX#X>XZXZX",
"ZXZXZXZXZXp xX~.[.v + #.J.g.8._ ^ K.[ 9.c.p.E 9.S.` y.u.;.H a.S.9.9.u.9.W V.i.>.,.: 4 ].U.iX.X>XZXZX",
"ZXZXZXZXZXi dXXX{.b + 2 W B S , B Q Z Z E C , F W Z F P Z , K Q H C F C M J S A A = 9 8X!.uX#X&XZXZX",
"ZXZXZXZXZXi aX/.n.c 5.<.<.r.,.y.r.8.0.c.w.0.u.r.r.:.;.>.8.t... .8. .q.9.t.9.r.,.0.5.6.c z 3X^.>XZXZX",
"ZXZXZXZXZXi cXiX0Xh P.y.B.A.L.h.l.l.l.G.L.x.l.x.l.l.L.G.B.C.l.z.C.L.x.x.x.l.C.J.j.F.&.n.wXvX^.>XZXZX",
"ZXZXZXZXZXd cX3X].0 F.{ { y.h.' ;.] -.f.f.-.] -.] ] f.<.*.;.] ] -.j.7.) ' ' <.f.,.3.w k *XkX^.>XZXZX"
};
