/* XPM */
static char *result[] = {
/* columns rows colors chars-per-pixel */
"50 50 207 2 ",
"   c #000001",
".  c #060900",
"X  c #090900",
"o  c #00000C",
"O  c #090F0E",
"+  c #1B0203",
"@  c #140B00",
"#  c #170000",
"$  c #1D1608",
"%  c #000012",
"&  c #090F10",
"*  c #00001C",
"=  c #1F191C",
"-  c #200203",
";  c #290405",
":  c #250D04",
">  c #310404",
",  c #0B2418",
"<  c #2F270F",
"1  c #2D2711",
"2  c #2F2A13",
"3  c #2F281F",
"4  c #342914",
"5  c #392B17",
"6  c #201525",
"7  c #142024",
"8  c #2C2D2C",
"9  c #2B2F26",
"0  c #312A2A",
"q  c #302823",
"w  c #293323",
"e  c #2D3629",
"r  c #3A3225",
"t  c #32312A",
"y  c #2B2B30",
"u  c #402C19",
"i  c #402C25",
"p  c #4A3B21",
"a  c #F54A00",
"s  c #F84F00",
"d  c #F35201",
"f  c #F65E00",
"g  c #F85E00",
"h  c #F66200",
"j  c #F76A00",
"k  c #F6650C",
"l  c #EF6C19",
"z  c #F76511",
"x  c #F66B17",
"c  c #F6671B",
"v  c #F66E1B",
"b  c #F86518",
"n  c #F4711D",
"m  c #F56E21",
"M  c #EE7D2B",
"N  c #F67524",
"B  c #F57922",
"V  c #F6792C",
"C  c #F97B27",
"Z  c #F57937",
"A  c #F77735",
"S  c #F57740",
"D  c #FA9903",
"F  c #F7931A",
"G  c #FBA400",
"H  c #FDA709",
"J  c #FDAA1B",
"K  c #FDA817",
"L  c #F58428",
"P  c #F58C2B",
"I  c #F88F2B",
"U  c #F6942E",
"Y  c #F9942D",
"T  c #F89C2E",
"R  c #F99925",
"E  c #F28A30",
"W  c #F69334",
"Q  c #F69C33",
"!  c #F89B31",
"~  c #F49D3B",
"^  c #F69838",
"/  c #FFAA26",
"(  c #FBA72E",
")  c #FEA92E",
"_  c #FCA124",
"`  c #FAA432",
"'  c #FEAD35",
"]  c #F3A03E",
"[  c #FEAF3A",
"{  c #F6AA36",
"}  c #FEB136",
"|  c #FEB239",
" . c #FCE32E",
".. c #FAE43E",
"X. c #FFEC38",
"o. c #B4AA5E",
"O. c #B3A75A",
"+. c #BFB55E",
"@. c #B5AB66",
"#. c #F29F41",
"$. c #C1B55C",
"%. c #C8BE5F",
"&. c #E9AC4A",
"*. c #F2A041",
"=. c #F5AC44",
"-. c #FEAF41",
";. c #F5AE48",
":. c #FEB142",
">. c #F3B44B",
",. c #FEB249",
"<. c #F6B847",
"1. c #E4AB53",
"2. c #F5A65B",
"3. c #E3BF54",
"4. c #FABB56",
"5. c #C8BE64",
"6. c #C6B866",
"7. c #F9BF68",
"8. c #F3A570",
"9. c #F3A467",
"0. c #CAC35F",
"q. c #D5CA5B",
"w. c #DBCA5E",
"e. c #DBCA57",
"r. c #DED359",
"t. c #D8CA4C",
"y. c #FAC447",
"u. c #FAC449",
"i. c #FBCE4E",
"p. c #F5C755",
"a. c #F5C955",
"s. c #FBCE51",
"d. c #E0D35E",
"f. c #FAD353",
"g. c #F9D45C",
"h. c #FBDD5B",
"j. c #FBE647",
"k. c #FDE54D",
"l. c #FDE554",
"z. c #F6E15F",
"x. c #FDE55D",
"c. c #FEEB5C",
"v. c #FFEB57",
"b. c #FFF15B",
"n. c #CCC264",
"m. c #DACA63",
"M. c #D5CB64",
"N. c #DED363",
"B. c #DFD36E",
"V. c #DFD072",
"C. c #E1D365",
"Z. c #E1D26C",
"A. c #EADD6A",
"S. c #E1D867",
"D. c #F7D561",
"F. c #E6D874",
"G. c #F8CA73",
"H. c #FBE562",
"J. c #FDEA63",
"K. c #FDED69",
"L. c #F6E160",
"P. c #FFF267",
"I. c #FEF36A",
"U. c #FFFC6C",
"Y. c #FFFB70",
"T. c #F39D81",
"R. c #F4A583",
"E. c #F4AA8A",
"W. c #F1B380",
"Q. c #F3B49A",
"!. c #F5CB8E",
"~. c #F8C886",
"^. c #F7CD94",
"/. c #F7C996",
"(. c #F7D69E",
"). c #F9D799",
"_. c #DDD7A9",
"`. c #DAD6BE",
"'. c #F6D4A2",
"]. c #F9D4AB",
"[. c #F8DDAB",
"{. c #F8DDBC",
"}. c #F9EAA9",
"|. c #F9EDBC",
" X c #FBF2B5",
".X c #DCDADA",
"XX c #DCD9D6",
"oX c #E0DEC1",
"OX c #F8EBCC",
"+X c #FAF4C4",
"@X c #FCF4CD",
"#X c #FFFBCA",
"$X c #F7F3CF",
"%X c #E2E2DD",
"&X c #F8EED9",
"*X c #FDF9D6",
"=X c #FEFEDE",
"-X c #FBF6D6",
";X c #DCDCE1",
":X c #E2E2E2",
">X c #E2E3E9",
",X c #FEFCE3",
"<X c #FCF5E8",
"1X c #FBFAF5",
"2X c #FEFFFE",
"3X c #FAF7F1",
"4X c None",
/* pixels */
"4X4X4X4X4X4X5 4 < < 1 < 4 < < < 4 < < < < < < < < < < 4 q 0 0 0 8 q 0 0 0 3 < < < < 4 4 4X4X4X4X4X4X",
"4X4X4X4X4X4X                                                                            4X4X4X4X4X4X",
"4X4X4X4X4X4Xi e w w w w w w w w w w w w w w w w w w w w 8 8 8 8 8 y y y 8 8 w w w 3 e r 4X4X4X4X4X4X",
"4X4X4Xu 5   O.C.w.w.q.w.w.w.q.w.w.w.w.w.w.w.q.m.w.m.e.m.`.;XXX.X.X.XXX.X.X_.t.m.w.w.C.6.r + p 4X4X4X",
"4X4X4X      0.U.J.P.P.I.P.I.P.P.P.P.P.P.P.P.P.P.P.I.b.P.,X2X2X2X2X2X2X2X2X#Xj.Y.P.P.U.S.*   + 4X4X4X",
"4X4X4X= ,   $.J.H.H.H.H.H.L.H.H.H.H.H.H.H.H.H.H.H.H.z.L.$X2X3X1X1X1X1X1X1X|...H.H.z.J.M.6   r 4X4X4X",
"- @ o 5.d.q.&.] *.] ] ] *.] #.*.] *.*.] *.*.*.] *.*.~ *.8.E.R.R.R.R.R.R.R.9.` *.] *.~ &.q.S.$.t   4 ",
"+ X % A.P.I.=.a x z z z z z z k k z z z z z z z z z z z f f f f f f f f f h c z k x a ~ P.U.C.e   1 ",
"+ X o B.c.H.=.c B B B B B B B B B B B B B B B B B B B B V Z Z Z Z Z Z Z Z V n B B V x *.L.J.m.w   1 ",
"+ X o B.J.J.<.U Q Q ! ! ! ! ! ! ! ! ! T T T T Q T T T Q ! ! ! ! T Q ! ! ! ! Q Q U N k *.H.K.m.w   1 ",
"+ X o B.J.c.y.' | } } } } } } [ ' [ } | | [ | | | | } } :.,.:.| ' } ' [ | ' | | Q B z *.H.I.m.w   1 ",
"+ X o B.J.J.y.) } ' ' ' ' ' ' ' } } ' ( ( ( ( ( ) ( ` ) G G G / [ ' ' ' ' ' ' } T B k *.L.P.m.w   1 ",
"@ X o Z.J.J.y.` ' ' ' [ ' ' ' ' Y I Q f.i.i.i.i.s.s.i.s.).{.[.7.G [ ' ' ' ' ' } T N k #.H.J.m.w   1 ",
"+ X o B.J.J.y.) | ' ' ' ' ' ' Q N n ~ J.J.J.J.J.H.K.l.J.*X2X1X^.K 4.[ ' [ ' ' } T N k *.H.P.m.w   1 ",
"+ X % B.J.J.y.) } ' ' ' ' | | ( d d E H.J.H.H.J.J.J.l.K.,X2X2X~.D G H [ ' ' ' } Q N k #.H.I.m.w   1 ",
"+ . o B.J.J.y.) | ' ' ' ` U Y ] >.;.p.H.x.H.J.J.H.H.c.H.}.+X X[.].].7.K | ' ' } T N k *.L.I.m.w   1 ",
"+ X o B.J.H.y.) | ' ' } Q v x *.I.J.J.c.H.J.H.x.x.x.x.x.x.j.k.@X2X1X'.G ,.' ' } T N z *.H.P.m.w   1 ",
"+ X o B.J.J.y.( } ' ' ' ! v x *.J.J.J.H.c.J.P.J.P.P.P.P.H.l.c.@X2X2X'.G ,.' ' } T N k *.H.I.m.w   1 ",
"@ X o B.P.c.y.( | ' ' | ! l n *.J.x.H.H.J.z.p.p.p.p.p.a.L.c.c.$X2X1X'.G ,.' ' } T N k *.H.J.m.w   1 ",
"+ X o Z.J.H.y.' } ' ' } ! v v *.J.H.J.H.H.h.M N B V v B D.c.l.@X2X1X'.G ,.' ' ' T N k *.H.I.m.w   1 ",
"+ X % B.c.J.y.) ' ' ' } ! l v *.K.H.J.H.J.h.m z v x k l D.P.l.*X2X2X'.G ,.' ' } T N k *.H.I.m.w   1 ",
"+ . o B.J.J.y.) | ' ' } ! n v *.K.c.H.H.J.h.P L P P L P p.h.f.}.&X+X~.G :.' ' } T N k *.H.P.m.w   1 ",
"+ X o B.J.J.y.` | ' ' } ! v v ] J.H.H.J.J.x.{ ' ' ' ` ' ' } ' } } { ' ' ' ' ' } T N z *.L.I.m.w   1 ",
"+ X o B.J.J.y.) } ' ' } ! n v *.K.x.J.H.J.x.[ ' [ ' } } ' ` ' / K J ) } ' } ' } T N k #.H.J.m.w   1 ",
"@ X o B.J.J.y.) } ' ' } ! v v *.J.x.J.H.c.x.} ' ' ' ' ' [ } ' [ [ [ [ ' ' ' ' } ! N k #.H.I.m.w   1 ",
"+ X o B.J.J.y.) } ' ' } ! n v #.K.H.H.H.H.x.{ ) ' ' ' } ' } } [ [ [ [ ' ' ' ' } T N k #.L.K.m.w   1 ",
"+ X % B.J.H.y.' | ' ' } ! n v *.J.J.H.J.J.x.} ' ' ' ' ' ' ' ' / / / ' } ' ' ' } T N k #.H.P.m.w   1 ",
"+ . o B.J.H.y.( } ' ' } ! v v *.J.x.H.c.H.x.} ' [ ' ' ' [ { | :.>.,.[ ' } ' ' } T N k #.H.P.m.w   1 ",
"+ X % B.P.J.y.) ' ' ' } ! n v ] K.H.J.H.J.x.} ' } } ' } g.x.h.|.3X,X^.G :.' ' } T N k #.H.P.m.w   1 ",
"+ X o B.c.J.y.) } ' ' | ! n v *.J.J.J.H.H.x.{ ' ' } ) } h.b.c.@X2X2X'.D ,.' ' } T N k #.L.P.m.w   1 ",
"@ X o Z.J.H.y.) | ' ' } ! v v *.J.x.H.J.J.x.{ ) ' { ` { h.c.x.@X2X1X(.D ,.' ' } Q N k *.H.P.m.w   1 ",
"+ X o Z.J.J.y.( } ' ' ' T n v *.K.x.J.x.H.x.x.h.h.h.h.h.H.l.x.@X2X1X'.G ,.' ' } T N z *.H.I.m.w   1 ",
"+ X % Z.J.J.y.) | ' ' | ! m n ] J.H.c.J.J.H.J.J.J.J.J.c.K.H.J.@X2X1X'.G ,.' ' } T N k *.H.P.m.w   1 ",
"@ X o B.c.J.y.) } ' ' ' ! l x ~ I.H.J.H.H.J.J.H.x.J.J.H.x. .j.@X2X1X'.G :.' ' } Q N k *.H.P.m.w   1 ",
"+ X o B.J.J.y.( } ' ' } ' Q Q ~ ] ~ &.J.J.H.J.J.H.H.l.J. X*X@X/.R.E.2./ ' ' ' } T N z *.L.P.m.w   1 ",
"+ X o B.J.H.y.( | ' ' ' ' ' } ( x x W H.l.H.x.x.H.H.l.H.-X2X1XE.s n F | ' } ' } T N k *.H.P.m.9   1 ",
"+ . o B.J.J.y.' | ' } ' ' ' } Q c b W K.P.J.P.P.P.I.c.P.=X2X1XE.a S U } ' } ' } T N k *.H.I.m.w   1 ",
"+ X o B.J.J.y.) } ' ' ' ' ' ' ' T T ~ ;.;.;.;.;.;.;.=.;.W.Q.Q.2.D ~ ` ' ' ' ' } T B k *.L.P.m.w   1 ",
"@ X % B.J.J.y.) } ' ' ' ' ' ' ' ' } ` l x v v x v v v v j h j R | } } ' ' ' ' } T N k *.H.P.m.w   1 ",
"+ X o Z.J.J.y.) | ' ' [ ' ' ' ' ' [ ( v n n v n v v v n B m m T | } ' ' ' ' ' } Q N k *.D.I.m.w   1 ",
"+ X % F.J.H.y.( ' ' ' ' ' ' ' } ' } ` U U U U U U U U U U U U ( } } } } ' ' ' } T N k *.L.P.m.w   1 ",
"+ X o Z.J.l.y.' | } ' ' ' ' } ' [ ' | | } } } } } } } } | :.:.:.| :.| :.[ | } } ( V v *.z.P.m.9   1 ",
"+ X o F.P.I.u._ ' ( ` ' ` ( ' ( ) ) ) ) ( ( ( ' ) ) ' ( H G G G G G G G G _ ) ' I x d ~ J.U.Z.e   1 ",
"; : o @.n.+.3.y.y.y.y.y.y.y.y.y.y.u.y.y.y.y.y.y.y.y.u.u.G.^.!.!.!.^.!.!.~.G.y.y.<.*.*.1.$.n.O.r   5 ",
"4X4X4X      $.I.H.J.H.J.J.J.J.H.J.J.H.J.J.J.H.J.H.J.x.H.*X2X1X2X2X2X2X2X2X+Xj.J.J.H.I.M.%     4X4X4X",
"4X4X4X$ $   0.P.J.J.J.J.J.J.J.J.J.J.J.J.J.J.J.J.J.P.c.J.=X2X2X2X2X2X2X2X2X#X .I.J.x.U.B.7   5 4X4X4X",
"4X4X4X: $   o.A.N.C.C.C.S.Z.S.C.C.C.C.C.S.C.C.C.S.S.d.N.oX>X%X:X:X:X:X;X:X_.r.B.S.N.A.5.6   5 4X4X4X",
"4X4X4X4X4X4X  o     o           o     o       o       o                     o   o       4X4X4X4X4X4X",
"4X4X4X4X4X4X: . X . X X X X X X X X X X X X X X X X X X O O & & & & & & & O X X X . X @ 4X4X4X4X4X4X",
"4X4X4X4X4X4X> + - - - + - + + - - + + - + + - + - + + + + + + + + + + - - + - + - + - ; 4X4X4X4X4X4X"
};
