/* XPM */
static char *result[] = {
/* columns rows colors chars-per-pixel */
"50 49 211 2 ",
"   c #00001C",
".  c #000933",
"X  c #00143D",
"o  c #21002E",
"O  c #2C0C37",
"+  c #2F1B3A",
"@  c #0F2A2A",
"#  c #1E2F2F",
"$  c #1B2F30",
"%  c #192837",
"&  c #003030",
"*  c #003232",
"=  c #003636",
"-  c #003737",
";  c #0A3535",
":  c #003B39",
">  c #003A3A",
",  c #003B3B",
"<  c #003D38",
"1  c #003D39",
"2  c #2A2828",
"3  c #2A2929",
"4  c #2B2A2A",
"5  c #2B2F2F",
"6  c #2C2C2C",
"7  c #2D2C2C",
"8  c #2D2D2D",
"9  c #2E2D2D",
"0  c gray18",
"q  c #2F2F2F",
"w  c #312B2B",
"e  c #362A2A",
"r  c #302D2D",
"t  c #302F2F",
"y  c #322F2F",
"u  c #3B2F2F",
"i  c #3C2C37",
"p  c #382439",
"a  c #2F3232",
"s  c #2E3333",
"d  c #2F3333",
"f  c #233939",
"g  c #223B3A",
"h  c #223C3B",
"j  c gray19",
"k  c #313131",
"l  c #323131",
"z  c #303232",
"x  c #323232",
"c  c gray20",
"v  c #343232",
"b  c #323434",
"n  c #343434",
"m  c #353535",
"M  c #363535",
"N  c #353636",
"B  c gray21",
"V  c #373636",
"C  c #373737",
"Z  c #383131",
"A  c #3B3030",
"S  c #3A3535",
"D  c #393636",
"F  c #3F3636",
"G  c #303B3B",
"H  c gray22",
"J  c #393838",
"K  c #383939",
"L  c #393939",
"P  c #3A3939",
"I  c #3B3939",
"U  c #3A3A3A",
"Y  c #3A3B3B",
"T  c gray23",
"R  c #3C3939",
"E  c #3E3939",
"W  c #3F3939",
"Q  c #3C3A3A",
"!  c #3D3B3B",
"~  c #3B3C3C",
"^  c #3C3C3C",
"/  c gray24",
"(  c #3F3C3D",
")  c #3E3E3E",
"_  c #3F3E3E",
"`  c #59192C",
"'  c #423838",
"]  c #433B3B",
"[  c #413F3F",
"{  c #5D3636",
"}  c #5B3835",
"|  c #683738",
" . c #753636",
".. c #733836",
"X. c #2F4636",
"o. c #3A403B",
"O. c #396B3A",
"+. c #464B35",
"@. c #40423E",
"#. c #485936",
"$. c #415738",
"%. c #45503C",
"&. c #63463B",
"*. c #506432",
"=. c #413D45",
"-. c #3F4646",
";. c gray25",
":. c #414141",
">. c #424241",
",. c gray26",
"<. c #434343",
"1. c #444444",
"2. c gray27",
"3. c #464646",
"4. c gray28",
"5. c #4E4646",
"6. c #484848",
"7. c gray29",
"8. c #4B4B4B",
"9. c #4C4C4B",
"0. c #4C4B4C",
"q. c gray30",
"w. c gray31",
"e. c #535E46",
"r. c #515A48",
"t. c #4C4651",
"y. c #515151",
"u. c gray32",
"i. c #637151",
"p. c #637651",
"a. c #913232",
"s. c #983B3B",
"d. c #9F3838",
"f. c #A83534",
"g. c #BA3B3B",
"h. c #C33C3C",
"j. c #CD3E3E",
"k. c #924233",
"l. c #9B3B40",
"z. c #CE2941",
"x. c #D13E42",
"c. c #BB4141",
"v. c #C64242",
"b. c #D74747",
"n. c #C25555",
"m. c #ED4C49",
"M. c #FB4743",
"N. c #F24846",
"B. c #F84947",
"V. c #F74949",
"C. c #FF4848",
"Z. c #F84D4D",
"A. c #FF4F4F",
"S. c #FF5454",
"D. c #FF5A5A",
"F. c #FF6262",
"G. c #FD6666",
"H. c #FD7676",
"J. c #6E8949",
"K. c #6C9943",
"L. c #708657",
"P. c #769054",
"I. c #7A9658",
"U. c #80A156",
"Y. c #88AD57",
"T. c #88B056",
"R. c #8AB059",
"E. c #91BC5D",
"W. c #809A62",
"Q. c #89AC62",
"!. c #89AA65",
"~. c #8CB460",
"^. c #91BB60",
"/. c #92BD61",
"(. c #95BF64",
"). c #92C152",
"_. c #93C751",
"`. c #99CD56",
"'. c #94C05E",
"]. c #9AC95D",
"[. c #9FD25C",
"{. c #A6E259",
"}. c #A9E25F",
"|. c #ACE95D",
" X c #AEEB5F",
".X c #95C063",
"XX c #9AC765",
"oX c #9DCD60",
"OX c #9ECE60",
"+X c #9ECF61",
"@X c #A1D265",
"#X c #A7DE60",
"$X c #A6DC62",
"%X c #A7DB64",
"&X c #A8DC64",
"*X c #ABE463",
"=X c #AAE064",
"-X c #ADE366",
";X c #ADE862",
":X c #AEE864",
">X c #AFEC65",
",X c #B3EE67",
"<X c #BDFD6A",
"1X c #BFFF6D",
"2X c #BDFA70",
"3X c #C1FF6D",
"4X c #C0FF6E",
"5X c #C5FF70",
"6X c #C9FF73",
"7X c #FF8282",
"8X c None",
/* pixels */
"8X8X8X8X8X8X8X8X8X8X8X8X8X8X8X8X8X8X8X8X8X8X8X8X8X8X8X8X8X8X8X8X8X8X8X8X8X8X8X8X8X8X8X8X8X8X8X8X8X8X",
"8X8X8X8X8X8X8X8X8X8X8X8X8X8X8X8X8X8X8X8X8X8X8X8X8X8X8X8X8X8X8X8X8X8X8X8X8X8X8X8X8X8X8X8X8X8X8X8X8X8X",
"8X8X8X8X8X8X8X8X8X8X8X8X8X8X8X8X8X8X8X8X8X8X8X8X8X8X8X8X8X8X8X8X8X8X8X8X8X8X8X8X8X8X8X8X8X8X8X8X8X8X",
"8X8X8X8X8X8X8X8X8X8X8X8X8X8X8X8X8X8X8X8X8X8X8X8X8X8X8X8X8X8X8X8X8X8X8X8X8X8X8X8X8X8X8X8X8X8X8X8X8X8X",
"8X8X8X8X8X8X8X8X8X8X8X8X8X8X8X8X8X8X8X8X8X8X8X8X8X8X8X8X8X8X8X8X8X8X8X8X8X8X8X8X8X8X8X8X8X8X8X8X8X8X",
"8X8X8X8X8X8X8X8X8X8X8X8X8X8X8X8X8X8X8X8X8X8X8X8X8X8X8X8X8X8X8X8X8X8X8X8X8X8X8X8X8X8X8X8X8X8X8X8X8X8X",
"8X8X8X8X8X8X8X8X8X8X8X8X8X8X8X8X8X8X8X8X8X8X8X8X8X8X8X8X8X8X8X8X8X8X8X8X8X8X8X8X8X8X8X8X8X8X8X8X8X8X",
"8X8X8X8X8X8X8X8X8X8X8X8X8X8X8X8X8X8X8X8X8X8X8X8X8X8X8X8X8X8X8X8X8X8X8X8X8X8X8X8X8X8X8X8X8X8X8X8X8X8X",
"8X8X8X8X8X8X8X8X8X8X8X8X8X8X8X8X8X8X8X8X8X8X8X8X8X8X8X8X8X8X8X8X8X8X8X8X8X8X8X8X8X8X8X8X8X8X8X8X8X8X",
"8X8X8X8X8X8X8X8X8X8X8X8X8X8X8X8X8X8X8X8X8X8X8X8X8X8X8X8X8X8X8X8X8X8X8X8X8X8X8X8X8X8X8X8X8X8X8X8X8X8X",
"8X8X8X8X8X8X8X8X8X8X8X8X8X8X8X8X8X8X8X8X8X8X8X8X8X8X8X8X8X8X8X8X8X8X8X8X8X8X8X8X8X8X8X8X8X8X8X8X8X8X",
"8X8X8X8X8X8X8X8X8X8X8X8X8X8X8X8X8X8X8X8X8X8X8X8X8X8X8X8X8X8X8X8X8X8X8X8X8X8X8X8X8X8X8X8X8X8X8X8X8X8X",
"8X8X8X8X8X8X8X8X8X8X8X8X8X8X8X8X8X8X8X8X8X8X8X8X8X8X8X8X8X8X8X8X8X8X8X8X8X8X8X8X8X8X8X8X8X8X8X8X8X8X",
"8X8X8X8X8X8X8X8X8X8X8X8X8X8X8X8X8X8X8X8X8X8X8X8X8X8X8X8X8X8X8X8X8X8X8X8X8X8X8X8X8X8X8X8X8X8X8X8X8X8X",
"8X8X8X8X8X8X8X8X8X8X8X8X8X8X8X8X8X8X8X8X8X8X8X:.8X8X8X8X8X8X8X8X8X8X8X8X8X8X8X8X8X8X8X8X8X8X8X8X8X8X",
"8X8X8X8X8X8X8X8X8X8X8X8X8X8X8X8X8X8Xu.8X2.6.m l q.2.8X8X8X8X8X8X8X8X8X8X8X8X8X8X8X8X8X8X8X8X8X8X8X8X",
"8X8X8X8X8X8X8X8X8X8X8X8X8X8X8X8X,./ ;.w.6.V n x n C 8X8X8X8X8X8X8X8X8X8X8X8X8X8X8X8X8X8X8X8X8X8X8X8X",
"8X8X8X8X8X8X8X8X8X8X8X8X8X8X) ) 6.T 3.6.L 4.L U l t / 4.8X8X8X8X8X8X8X8X8X8X8X8X8X8X8X8X8X8X8X8X8X8X",
"8X8X8X8X8X8X8X8X8X8X8X8X7.,.,.) 6.) 6.^ 7./ k U 6 0 m / 8X8X8X8X8X8X8X8X8X8X8X8X8X8X8X8X8X8X8X8X8X8X",
"8X8X8X8X8X8X8X8X8X8X8X8X:.K 3.,.<.2.H ;.4.B ;.U j 9 m ^ 8X8X8X8X8X8X8X8X8X8X8X8X8X8X8X8X8X8X8X8X8X8X",
"8X8X8X8X8X8X8X8X8X8X8Xm [ 5.2 K T / L ^ ;.4.2.U c 8 l L 1.8X8X8X8X8X8X8X8X8X8X8X8X8X8X8X8X8X8X8X8X8X",
"8X8X8X8X8X8X8X8X8X8X8X8X-., b y ~ J ~ B e ' ! L c n 7 n C 8X8X8X8X8X8X8X8X8X8X8X8X8X8X8X8X8X8X8X8X8X",
"8X8X8X8X8X8X8X8X8X8X8Xg | g.a s Q Y D Z , > G r Y j 7 L ;.8X8X8X8X8X8X8X8X8X8X8X8X8X8X8X8X8X8X8X8X8X",
"8X8X8X8X8X8X8X8X8X8X8X< d.S.n.* ] R d = s.b. .; E x m n ) _ 8X8X8X8X8X8X8X8X8X8X8X8X8X8X8X8X8X8X8X8X",
"8X8X8X8X8X8X8X8X8X8X8XX f.D.H...h W f j.7XF.a., A L 3 L c m 8X8X8X8X8X8X8X8X8X8X8X8X8X8X8X8X8X8X8X8X",
"8X8X8X8X8X8X8X8X(.$X=XK.` B.M.l.: 1 c.A.G.Z.{ @ w q 4 j T y.8X8X8X8X8X8X8X8X8X8X8X8X8X8X8X8X8X8X8X8X",
"8X8X8X8X8X8X8X8X1X3X<X).  k.z.&.% p m.V.C.h.- u N L / 0 m 8X8X8X8X8X8X8X8X8X8X8X8X8X8X8X8X8X8X8X8X8X",
"8X8X8X8X8X8X8X8X*X{.4X`.*.. O.>X[.X.x.N.v.# z v T U U L ^ 4.8X8X8X8X8X8X8X8X8X8X8X8X8X8X8X8X8X8X8X8X",
"8X8X8X8X8X8X8X8XXX X|.6X:Xo +.#X}.$.i } & 5 y C L C C C B H ^ :.8X8X8X8X8X8X8X8X8X8X8X8X8X8X8X8X8X8X",
"8X8X8X8X8X8X8X8X8X/._.;X.X0.+ #.%.O o.$ F I K B m M C H L U U 8X8X8X8X8X8X8X8X8X8X8X8X8X8X8X8X8X8X8X",
"8X8X8X8X8X8X8X8X8X8X8Xp.8X8X8Xt.=.@.( S C B l B H C M m H C P 8X8X8X8X8X8X8X8X8X8X8X8X8X8X8X8X8X8X8X",
"8X8X8X8X8X8X8X8X8X8X8X8X8X8X8X8X8X8X9.8.8X:.U 8 l J T ,.8X8X8X8X8X8X8X8X8X8X8X8X8X8X8X8X8X8X8X8X8X8X",
"8X8X8X8X8X8X8X8X8X8X8X8X8X8X8X8X8X8X8X8X8X8X8X:.6.P n y.8X8X8X8X8X8X8X8X8X8X8X8X8X8X8X8X8X8X8X8X8X8X",
"8X8X8X8X8X8X8X8X8X8X8X8X8X8X8X8X8X8X8X8X8X8X8Xu.7.8X8X8X8X8XI.L.Q.E.8X8X8X8X8X8X8X8X8X8X8X8X8X8X8X8X",
"8X8X8X8X8X8X8X8X8X8X8X8X8X8X8X8X8X8X8X8X8X8X8X8X0.;.8X8X8Xr.U.T.-X'.8X@X8X8X8X8X8X8X8X8X8X8X8X8X8X8X",
"8X8X8X8X8X8X8X8X8X8X8X8X8X8X8X8X8X8X8X8X8X8X8X8X8Xw.>.4.e.J.Y.].&X,X5X2X8X8X8X8X8X8X8X8X8X8X8X8X8X8X",
"8X8X8X8X8X8X8X8X8X8X8X8X8X8X8X8X8X8X8X8X8X8X8X8X8X8X8X8Xi.P.R.OX%XoX~.8X8X8X8X8X8X8X8X8X8X8X8X8X8X8X",
"8X8X8X8X8X8X8X8X8X8X8X8X8X8X8X8X8X8X8X8X8X8X8X8X8X8X8X8X8X8XW.!.+X^.8X8X8X8X8X8X8X8X8X8X8X8X8X8X8X8X",
"8X8X8X8X8X8X8X8X8X8X8X8X8X8X8X8X8X8X8X8X8X8X8X8X8X8X8X8X8X8X8X8X8X8X8X8X8X8X8X8X8X8X8X8X8X8X8X8X8X8X",
"8X8X8X8X8X8X8X8X8X8X8X8X8X8X8X8X8X8X8X8X8X8X8X8X8X8X8X8X8X8X8X8X8X8X8X8X8X8X8X8X8X8X8X8X8X8X8X8X8X8X",
"8X8X8X8X8X8X8X8X8X8X8X8X8X8X8X8X8X8X8X8X8X8X8X8X8X8X8X8X8X8X8X8X8X8X8X8X8X8X8X8X8X8X8X8X8X8X8X8X8X8X",
"8X8X8X8X8X8X8X8X8X8X8X8X8X8X8X8X8X8X8X8X8X8X8X8X8X8X8X8X8X8X8X8X8X8X8X8X8X8X8X8X8X8X8X8X8X8X8X8X8X8X",
"8X8X8X8X8X8X8X8X8X8X8X8X8X8X8X8X8X8X8X8X8X8X8X8X8X8X8X8X8X8X8X8X8X8X8X8X8X8X8X8X8X8X8X8X8X8X8X8X8X8X",
"8X8X8X8X8X8X8X8X8X8X8X8X8X8X8X8X8X8X8X8X8X8X8X8X8X8X8X8X8X8X8X8X8X8X8X8X8X8X8X8X8X8X8X8X8X8X8X8X8X8X",
"8X8X8X8X8X8X8X8X8X8X8X8X8X8X8X8X8X8X8X8X8X8X8X8X8X8X8X8X8X8X8X8X8X8X8X8X8X8X8X8X8X8X8X8X8X8X8X8X8X8X",
"8X8X8X8X8X8X8X8X8X8X8X8X8X8X8X8X8X8X8X8X8X8X8X8X8X8X8X8X8X8X8X8X8X8X8X8X8X8X8X8X8X8X8X8X8X8X8X8X8X8X",
"8X8X8X8X8X8X8X8X8X8X8X8X8X8X8X8X8X8X8X8X8X8X8X8X8X8X8X8X8X8X8X8X8X8X8X8X8X8X8X8X8X8X8X8X8X8X8X8X8X8X",
"8X8X8X8X8X8X8X8X8X8X8X8X8X8X8X8X8X8X8X8X8X8X8X8X8X8X8X8X8X8X8X8X8X8X8X8X8X8X8X8X8X8X8X8X8X8X8X8X8X8X",
"8X8X8X8X8X8X8X8X8X8X8X8X8X8X8X8X8X8X8X8X8X8X8X8X8X8X8X8X8X8X8X8X8X8X8X8X8X8X8X8X8X8X8X8X8X8X8X8X8X8X"
};
