/* XPM */
static char *result[] = {
/* columns rows colors chars-per-pixel */
"50 49 244 2 ",
"   c #00001F",
".  c #000B33",
"X  c #261A2D",
"o  c #2E1638",
"O  c #371633",
"+  c #341338",
"@  c #002F2F",
"#  c #1F2828",
"$  c #003333",
"%  c #023434",
"&  c #003636",
"*  c #003539",
"=  c #003838",
"-  c #003939",
";  c #003B3B",
":  c #003E39",
">  c #063C3A",
",  c #193333",
"<  c #103838",
"1  c #1C3C3C",
"2  c #252424",
"3  c #272626",
"4  c #2B2626",
"5  c #2B2A2A",
"6  c #2C2B2B",
"7  c #2F2B2B",
"8  c #2C282E",
"9  c #2D2C2C",
"0  c #2D2D2D",
"q  c #2E2D2D",
"w  c gray18",
"e  c #2F2E2E",
"r  c #2F2F2F",
"t  c #322E2E",
"y  c #342E2E",
"u  c #392C2C",
"i  c #2E312E",
"p  c #33372F",
"a  c #252D37",
"s  c #2E2931",
"d  c #253434",
"f  c #2C3636",
"g  c #2B3838",
"h  c #2B3E3E",
"j  c gray19",
"k  c #313030",
"l  c #313131",
"z  c #313232",
"x  c #323232",
"c  c #333232",
"v  c #333233",
"b  c gray20",
"n  c #343333",
"m  c #343433",
"M  c #343434",
"N  c #353434",
"B  c #343535",
"V  c #353535",
"C  c #373535",
"Z  c gray21",
"A  c #373636",
"S  c #373736",
"D  c #373737",
"F  c #393030",
"G  c #3C3030",
"H  c #393434",
"J  c #3B3734",
"K  c #393636",
"L  c #3C3636",
"P  c #3D3737",
"I  c #353A31",
"U  c #373836",
"Y  c #393D36",
"T  c #3A323F",
"R  c #373838",
"E  c #36393A",
"W  c #343A3A",
"Q  c gray22",
"!  c #393838",
"~  c #393938",
"^  c #393839",
"/  c #393939",
"(  c #3B3939",
")  c #3A3A39",
"_  c #39383A",
"`  c #3A393B",
"'  c #3A3A3A",
"]  c #3B3A3A",
"[  c #3A3B3B",
"{  c gray23",
"}  c #3E3939",
"|  c #3D393A",
" . c #3C3A3A",
".. c #3C3B3B",
"X. c #3E3B3B",
"o. c #3B3C3B",
"O. c #3C3C3B",
"+. c #3E3F3A",
"@. c #3B3C3C",
"#. c #3C3C3C",
"$. c #3D3C3C",
"%. c gray24",
"&. c #3F3D3D",
"*. c #3E3E3E",
"=. c #3F3F3F",
"-. c #5A2F2F",
";. c #403535",
":. c #483636",
">. c #403A36",
",. c #5F3535",
"<. c #723C2F",
"1. c #753434",
"2. c #3D4436",
"3. c #30453A",
"4. c #315337",
"5. c #206438",
"6. c #414B36",
"7. c #41423F",
"8. c #435638",
"9. c #6A5E3E",
"0. c #3E3C40",
"q. c #004944",
"w. c #3F4141",
"e. c gray25",
"r. c #414141",
"t. c #424141",
"y. c gray26",
"u. c #434343",
"i. c #434045",
"p. c #424646",
"a. c #444444",
"s. c #454444",
"d. c gray27",
"f. c #464646",
"g. c gray28",
"h. c #4D4747",
"j. c #484848",
"k. c #494949",
"l. c gray29",
"z. c #4B4B4B",
"x. c #4C4C4C",
"c. c gray30",
"v. c gray31",
"b. c #485141",
"n. c #515151",
"m. c gray32",
"M. c #575957",
"N. c #5C7245",
"B. c #833232",
"V. c #8F3636",
"C. c #8E3737",
"Z. c #A0333F",
"A. c #B03A3A",
"S. c #B23E3E",
"D. c #C12A3F",
"F. c #D33F3F",
"G. c #8B403D",
"H. c #C53840",
"J. c #B24444",
"K. c #C44142",
"L. c #DD4141",
"P. c #EA4144",
"I. c #EC4745",
"U. c #E74B4B",
"Y. c #ED4C49",
"T. c #FE4542",
"R. c #F34848",
"E. c #F74849",
"W. c #FF4949",
"Q. c #FF4F4F",
"!. c #FF5353",
"~. c #FF5454",
"^. c #FD5D5D",
"/. c #DC6261",
"(. c #FF6060",
"). c #FF7272",
"_. c #739E3D",
"`. c #64804A",
"'. c #708D4A",
"]. c #7A9E48",
"[. c #7A9F4F",
"{. c #6C8152",
"}. c #78915D",
"|. c #7E9E5C",
" X c #7BA448",
".X c #798C63",
"XX c #88AB5B",
"oX c #8DB953",
"OX c #87B05A",
"+X c #92BD5A",
"@X c #809964",
"#X c #90B863",
"$X c #94BE62",
"%X c #90C055",
"&X c #99CD57",
"*X c #95C359",
"=X c #96C25E",
"-X c #97C35E",
";X c #9BCE5A",
":X c #9FD858",
">X c #A2DD57",
",X c #A0D25F",
"<X c #A3D65D",
"1X c #A0D55F",
"2X c #A6DD5E",
"3X c #A5E159",
"4X c #A7E25B",
"5X c #A7E25C",
"6X c #ABE85D",
"7X c #98C662",
"8X c #9AC565",
"9X c #9AC861",
"0X c #9BCA60",
"qX c #9CCD63",
"wX c #9ECE63",
"eX c #9BC864",
"rX c #9DCA66",
"tX c #A3D563",
"yX c #A3D662",
"uX c #A6DC64",
"iX c #A7DC64",
"pX c #A8DC64",
"aX c #AAE061",
"sX c #ABE562",
"dX c #AEE963",
"fX c #AEEC60",
"gX c #B0E866",
"hX c #B1EF66",
"jX c #B8F767",
"kX c #B9F967",
"lX c #B6F368",
"zX c #B9F768",
"xX c #BBFB68",
"cX c #BBF86B",
"vX c #BEFE6B",
"bX c #BEFE6D",
"nX c #BFFE6E",
"mX c #C0FF6E",
"MX c #C1FF6F",
"NX c #C5FF72",
"BX c #CDFF74",
"VX c #CDFF77",
"CX c #FF8686",
"ZX c None",
/* pixels */
"ZXZXZXZXZXZXZXZXZXZXZXZXZXZXZXZXZXZXZXZXZXZXZXZXZXZXZXZXZXZXZXZXZXZXZXZXZXZXZXZXZXZXZXZXZXZXZXZXZXZX",
"ZXZXZXZXZXZXZXZXZXZXZXZXZXZXZXZXZXZXZXZXZXZXZXZXZXZXZXZXZXZXZXZXZXZXZXZXZXZXZXZXZXZXZXZXZXZXZXZXZXZX",
"ZXZXZXZXZXZXZXZXZXZXZXZXZXZXZXZXZXZXZXZXZXZXZXZXZXZXZXZXZXZXZXZXZXZXZXZXZXZXZXZXZXZXZXZXZXZXZXZXZXZX",
"ZXZXZXZXZXZXZXZXZXZXZXZXZXZXZXZXZXZXZXZXZXZXZXZXZXZXZXZXZXZXZXZXZXZXZXZXZXZXZXZXZXZXZXZXZXZXZXZXZXZX",
"ZXZXZXZXZXZXZXZXZXZXZXZXZXZXZXZXZXZXZXZXZXZXZXZXZXZXZXZXZXZXZXZXZXZXZXZXZXZXZXZXZXZXZXZXZXZXZXZXZXZX",
"ZXZXZXZXZXZXZXZXZXZXZXZXZXZXZXZXZXZXZXZXZXZXZXZXZXZXZXZXZXZXZXZXZXZXZXZXZXZXZXZXZXZXZXZXZXZXZXZXZXZX",
"ZXZXZXZXZXZXZXZXZXZXZXZXZXZXZXZXZXZXZXZXZXZXZXZXZXZXZXZXZXZXZXZXZXZXZXZXZXZXZXZXZXZXZXZXZXZXZXZXZXZX",
"ZXZXZXZXZXZXZXZXZXZXZXZXZXZXZXZXZXZXZXZXZXZXZXZXZXZXZXZXZXZXZXZXZXZXZXZXZXZXZXZXZXZXZXZXZXZXZXZXZXZX",
"ZXZXZXZXZXZXZXZXZXZXZXZXZXZXZXZXZXZXZXZXZXZXZXZXZXZXZXZXZXZXZXZXZXZXZXZXZXZXZXZXZXZXZXZXZXZXZXZXZXZX",
"ZXZXZXZXZXZXZXZXZXZXZXZXZXZXZXZXZXZXZXZXZXZXZXZXZXZXZXZXZXZXZXZXZXZXZXZXZXZXZXZXZXZXZXZXZXZXZXZXZXZX",
"ZXZXZXZXZXZXZXZXZXZXZXZXZXZXZXZXZXZXZXZXZXZXZXZXZXZXZXZXZXZXZXZXZXZXZXZXZXZXZXZXZXZXZXZXZXZXZXZXZXZX",
"ZXZXZXZXZXZXZXZXZXZXZXZXZXZXZXZXZXZXZXZXZXZXZXZXZXZXZXZXZXZXZXZXZXZXZXZXZXZXZXZXZXZXZXZXZXZXZXZXZXZX",
"ZXZXZXZXZXZXZXZXZXZXZXZXZXZXZXZXZXZXZXZXZXZXZXZXZXZXZXZXZXZXZXZXZXZXZXZXZXZXZXZXZXZXZXZXZXZXZXZXZXZX",
"ZXZXZXZXZXZXZXZXZXZXZXZXZXZXZXZXZXZXZXZXZXZXZXZXZXZXZXZXZXZXZXZXZXZXZXZXZXZXZXZXZXZXZXZXZXZXZXZXZXZX",
"ZXZXZXZXZXZXZXZXZXZXZXZXZXZXZXZXZXZXZXZXZXZXZXZXZXZXZXZXZXZXZXZXZXZXZXZXZXZXZXZXZXZXZXZXZXZXZXZXZXZX",
"ZXZXZXZXZXZXZXZXZXZXZXZXZXZXZXZXZXZXZXZXZXZXZX%.ZXZXZXZXZXZXZXZXZXZXZXZXZXZXZXZXZXZXZXZXZXZXZXZXZXZX",
"ZXZXZXZXZXZXZXZXZXZXZXZXZXZXZXZXZXg.c.d.x.e.n j j.u.ZXZXZXZXZXZXZXZXZXZXZXZXZXZXZXZXZXZXZXZXZXZXZXZX",
"ZXZXZXZXZXZXZXZXZXZXZXZXZXZXZXv.y.%.#.n.y.D Q V x D ZXZXZXZXZXZXZXZXZXZXZXZXZXZXZXZXZXZXZXZXZXZXZXZX",
"ZXZXZXZXZXZXZXZXZXZXZXZXZXZXr./ g.#.l.a.%.j.D { j l y.k.ZXZXZXZXZXZXZXZXZXZXZXZXZXZXZXZXZXZXZXZXZXZX",
"ZXZXZXZXZXZXZXZXZXZXZXZXZXd.a.e.j.=.d.%.z.Q b / 5 e D $.ZXZXZXZXZXZXZXZXZXZXZXZXZXZXZXZXZXZXZXZXZXZX",
"ZXZXZXZXZXZXZXZXZXZXZXZXr.%.u.r.r.d.D e.f./ u./ l w N y.ZXZXZXZXZXZXZXZXZXZXZXZXZXZXZXZXZXZXZXZXZXZX",
"ZXZXZXZXZXZXZXZXZXZXZXZXt.h.4 B ] { ' { %.g.u.' l r k ' y.ZXZXZXZXZXZXZXZXZXZXZXZXZXZXZXZXZXZXZXZXZX",
"ZXZXZXZXZXZXZXZXZXZXZXZXp.= g y [ / { C u L ..R N n 9 V ' ZXZXZXZXZXZXZXZXZXZXZXZXZXZXZXZXZXZXZXZXZX",
"ZXZXZXZXZXZXZXZXZXZXZXh ,.F.-., } [ H z ; 1 W q @.9 j ' y.ZXZXZXZXZXZXZXZXZXZXZXZXZXZXZXZXZXZXZXZXZX",
"ZXZXZXZXZXZXZXZXZXZXZXq.C.~./.% X.} d f J.U.1.< P V M D #.d.ZXZXZXZXZXZXZXZXZXZXZXZXZXZXZXZXZXZXZXZX",
"ZXZXZXZXZXZXZXZXZXZXZXZXV.!.).G.> | ( L.CX(.B.- F Z 2 M b / ZXZXZXZXZXZXZXZXZXZXZXZXZXZXZXZXZXZXZXZX",
"ZXZXZXZXZXZXZXZXZXZXZX`.I P.T.Z.* : K.Q.^.R.:.# 7 x D r u.ZXZXZXZXZXZXZXZXZXZXZXZXZXZXZXZXZXZXZXZXZX",
"ZXZXZXZXZXZXZXZXZXuXmX<X  <.D.9.3.+ Y.E.W.A.& G R { { 0 y.ZXZXZXZXZXZXZXZXZXZXZXZXZXZXZXZXZXZXZXZXZX",
"ZXZXZXZXZXZXZXZX=XBXzXdX].. 5.hXaX4.H.I.S.@ K V Q ' ' { m.ZXZXZXZXZXZXZXZXZXZXZXZXZXZXZXZXZXZXZXZXZX",
"ZXZXZXZXZXZXZXZX0XkXlX4X5XJ O ;X2X8.a >.$ t A b Q ' ' ' { ZXZXZXZXZXZXZXZXZXZXZXZXZXZXZXZXZXZXZXZXZX",
"ZXZXZXZXZXZXZXZX9XfXjXcX:X_.i X Y o +.E ;.N D x { ' { { { *. .r.ZXZXZXZXZXZXZXZXZXZXZXZXZXZXZXZXZXZX",
"ZXZXZXZXZXZXZXZXZXsX3XMXnXvX&X XN.T 7.&.w.Z 0 ! / D V n c c S s.ZXZXZXZXZXZXZXZXZXZXZXZXZXZXZXZXZXZX",
"ZXZXZXZXZXZXZXZXZXwX>XxXNXiXqXZXZXZXM.m.k.M / D V N V A Q ) 0.ZXZXZXZXZXZXZXZXZXZXZXZXZXZXZXZXZXZXZX",
"ZXZXZXZXZXZXZXZXZXZX%X6X$XZXZXZXZXZXZXZX#.{ A Q ' #.#.#.#._ b.ZXZXZXZXZXZXZXZXZXZXZXZXZXZXZXZXZXZXZX",
"ZXZXZXZXZXZXZXZXZXZXZX[.ZXZXZXZXZXZXZXZX{ D Q l q q j v U ^ 2.}.*X|.ZXZXZXZXZXZXZXZXZXZXZXZXZXZXZXZX",
"ZXZXZXZXZXZXZXZXZXZXZXZXZXZXZXZXZXZXZXZXj.b x #.' Z n m s 8 p oXtXOX1X7XZXZXZXZXZXZXZXZXZXZXZXZXZXZX",
"ZXZXZXZXZXZXZXZXZXZXZXZXZXZXZXZXZXZXZXZXZXa.0 6 ' #.o.` 6.'.+XyXgXbXVXrXZXZXZXZXZXZXZXZXZXZXZXZXZXZX",
"ZXZXZXZXZXZXZXZXZXZXZXZXZXZXZXZXZXZXZXZXZXZXd.l 3 Z O.i.{.XX-XpX,X#XZXZXZXZXZXZXZXZXZXZXZXZXZXZXZXZX",
"ZXZXZXZXZXZXZXZXZXZXZXZXZXZXZXZXZXZXZXZXZXZXZXl.Q 6 ~ ZXZX.X@X8XeXZXZXZXZXZXZXZXZXZXZXZXZXZXZXZXZXZX",
"ZXZXZXZXZXZXZXZXZXZXZXZXZXZXZXZXZXZXZXZXZXZXZXZXZXj.Z a.ZXZXZXZXZXZXZXZXZXZXZXZXZXZXZXZXZXZXZXZXZXZX",
"ZXZXZXZXZXZXZXZXZXZXZXZXZXZXZXZXZXZXZXZXZXZXZXZXZXZXZXZXZXZXZXZXZXZXZXZXZXZXZXZXZXZXZXZXZXZXZXZXZXZX",
"ZXZXZXZXZXZXZXZXZXZXZXZXZXZXZXZXZXZXZXZXZXZXZXZXZXZXZXZXZXZXZXZXZXZXZXZXZXZXZXZXZXZXZXZXZXZXZXZXZXZX",
"ZXZXZXZXZXZXZXZXZXZXZXZXZXZXZXZXZXZXZXZXZXZXZXZXZXZXZXZXZXZXZXZXZXZXZXZXZXZXZXZXZXZXZXZXZXZXZXZXZXZX",
"ZXZXZXZXZXZXZXZXZXZXZXZXZXZXZXZXZXZXZXZXZXZXZXZXZXZXZXZXZXZXZXZXZXZXZXZXZXZXZXZXZXZXZXZXZXZXZXZXZXZX",
"ZXZXZXZXZXZXZXZXZXZXZXZXZXZXZXZXZXZXZXZXZXZXZXZXZXZXZXZXZXZXZXZXZXZXZXZXZXZXZXZXZXZXZXZXZXZXZXZXZXZX",
"ZXZXZXZXZXZXZXZXZXZXZXZXZXZXZXZXZXZXZXZXZXZXZXZXZXZXZXZXZXZXZXZXZXZXZXZXZXZXZXZXZXZXZXZXZXZXZXZXZXZX",
"ZXZXZXZXZXZXZXZXZXZXZXZXZXZXZXZXZXZXZXZXZXZXZXZXZXZXZXZXZXZXZXZXZXZXZXZXZXZXZXZXZXZXZXZXZXZXZXZXZXZX",
"ZXZXZXZXZXZXZXZXZXZXZXZXZXZXZXZXZXZXZXZXZXZXZXZXZXZXZXZXZXZXZXZXZXZXZXZXZXZXZXZXZXZXZXZXZXZXZXZXZXZX",
"ZXZXZXZXZXZXZXZXZXZXZXZXZXZXZXZXZXZXZXZXZXZXZXZXZXZXZXZXZXZXZXZXZXZXZXZXZXZXZXZXZXZXZXZXZXZXZXZXZXZX"
};
