/* XPM */
static char *_75f7092fc314ada972259130fb24ebaMTBqEOS9NftS7MS4[] = {
/* columns rows colors chars-per-pixel */
"50 49 136 2 ",
"   c None",
".  c #020022",
"X  c #00002D",
"o  c #160026",
"O  c #180026",
"+  c #1A0034",
"@  c #260E30",
"#  c #290D37",
"$  c #311D38",
"%  c #002B2C",
"&  c #0F2E2D",
"*  c #182F2F",
"=  c #1C2637",
"-  c #003434",
";  c #003B3A",
":  c #143B39",
">  c #272626",
",  c #2B262F",
"<  c #2C2C2C",
"1  c #362B2B",
"2  c #353B2F",
"3  c #2E3232",
"4  c #293939",
"5  c #343434",
"6  c #393536",
"7  c #343C35",
"8  c #383E32",
"9  c #363339",
"0  c #313C3C",
"q  c #3B3B3B",
"w  c #462839",
"e  c #40323B",
"r  c #433939",
"t  c #5D3431",
"y  c #513836",
"u  c #633636",
"i  c #7E3534",
"p  c #7C3D3A",
"a  c #00433D",
"s  c #3A4034",
"d  c #384A36",
"f  c #33423D",
"g  c #3E413B",
"h  c #475C2E",
"j  c #465735",
"k  c #4B5436",
"l  c #57503C",
"z  c #4C7E3F",
"x  c #577038",
"c  c #31004D",
"v  c #3A2D41",
"b  c #4B3F53",
"n  c #2C4D4D",
"m  c #374646",
"M  c #3F4141",
"N  c #444444",
"B  c #4D4444",
"V  c #464944",
"C  c #484843",
"Z  c #474749",
"A  c #494949",
"S  c #504747",
"D  c #524D4D",
"F  c #4B5147",
"G  c #4D504B",
"H  c #535353",
"J  c #5B5757",
"K  c #576743",
"L  c #60724C",
"P  c #8A363E",
"I  c #973232",
"U  c #953939",
"Y  c #A03934",
"T  c #BD3535",
"R  c #B53B3B",
"E  c #C33C3C",
"W  c #CF3E3E",
"Q  c #C82740",
"!  c #D23F42",
"~  c #B25252",
"^  c #C24142",
"/  c #D54647",
"(  c #EE4645",
")  c #F74743",
"_  c #FD4747",
"`  c #F44B49",
"'  c #FD4C4C",
"]  c #FF5757",
"[  c #FE6363",
"{  c #F67373",
"}  c #69824F",
"|  c #75944B",
" . c #6F835B",
".. c #728B53",
"X. c #7F9E5A",
"o. c #85B24D",
"O. c #84AC56",
"+. c #81A659",
"@. c #87A959",
"#. c #8DBC52",
"$. c #8DB45B",
"%. c #8FBC58",
"&. c #90B95E",
"*. c #92BB64",
"=. c #97CA57",
"-. c #98CB57",
";. c #94C25B",
":. c #9CCD5D",
">. c #9FD956",
",. c #A4DB5C",
"<. c #A7E25C",
"1. c #ABE65F",
"2. c #ACEA5D",
"3. c #97C462",
"4. c #9DCD62",
"5. c #9FD065",
"6. c #A0D263",
"7. c #A6DC64",
"8. c #A9DF65",
"9. c #ABE363",
"0. c #AFEA65",
"q. c #ADE469",
"w. c #B1ED64",
"e. c #B4EE6A",
"r. c #B4F265",
"t. c #B8F667",
"y. c #B7F468",
"u. c #B9F769",
"i. c #BDFC6C",
"p. c #C1FF6E",
"a. c #C4FF70",
"s. c #C6FF71",
"d. c #C3FF70",
"f. c #C8FF72",
"g. c #CBFF73",
"h. c #FF8282",
/* pixels */
"                                                                                                    ",
"                                                                                                    ",
"                                                                                                    ",
"                                                                                                    ",
"                                                                                                    ",
"                                                                                                    ",
"                                                                                                    ",
"                                                                                                    ",
"                                                                                                    ",
"                              A 5 H                                                                 ",
"                            q < q                                                                   ",
"                        H 6 < q q Z                                                                 ",
"                        q 5 q q 6 6 q A                     6.6.:.;.%.O.                            ",
"                      q 6 6 5 < 5 6 6 q       Z       6.7.w.2.2.2.r.w.O.                            ",
"                      q q 6 q q q 5 5 q   A q 7 b } e.p.r.t.i.i.i.s.q.                              ",
"                        Z q < < 6 5 < A A q 5 8 X =.s.y.w.1.9.0.y.s.0.                              ",
"                          N 6 < Z q A A q Z q q @ x y.u.i.i.w.<.>.,.w.                              ",
"                        Z Z N q Z q A q A N 5 q 2 . =.i.9.u.d.i.i.y.r.;.                            ",
"                        M 6 A N Z Z q N Z 6 q q s . =.s.u.,.9.p.i.g.7.                              ",
"                      6 N B < q q q q q N Z Z g + h u.i.i.i.<.,.p.w.                                ",
"                      J m ; 5 5 q q q 6 1 r q 9 j 9.p.i.i.p.g.i.i.7.                                ",
"                    D - p R - 5 q q 6 5 ; ; f o ,.s.i.p.r.5.3.7.4.+.                                ",
"                      - R ] ~ - r q 3 - U / p X | p.p.#.s + c                                       ",
"                      ; T [ { t 0 q 4 W h.[ I a . =.o.X 6 s                                         ",
"                      n i _ ) P : ; ^ ' [ ' u & 5 , O g q H                                         ",
"                      S % Y Q l = w ` ` _ E - r q < 5 6 q                                           ",
"                        C X z y.:.7 ! ( ^ * 5 q > < q 5 A                                           ",
"                          e k 9.,.d 9 y - < 6 q q 6 6 H                                             ",
"                          G # j q $ q 0 6 5 q 6 6 6 q                                               ",
"                              v q g q 6 q q 6 6 <                                                   ",
"                                    H N   N q   Z                                                   ",
"                                                A                                                   ",
"                                                  Z           X...3.$.                              ",
"                                                  A N     F L @.;.q.4.9.7.                          ",
"                                                      Z V K | $.:.8.r.i.8.                          ",
"                                                            ..@.4.q.&. .                            ",
"                                                                  :.*.                              ",
"                                                                                                    ",
"                                                                                                    ",
"                                                                                                    ",
"                                                                                                    ",
"                                                                                                    ",
"                                                                                                    ",
"                                                                                                    ",
"                                                                                                    ",
"                                                                                                    ",
"                                                                                                    ",
"                                                                                                    ",
"                                                                                                    "
};
