/* XPM */
static char *e7860fa5979a4bd7e55fc1c5589b8005Eg8jVrKW2UkKCg5N[] = {
/* columns rows colors chars-per-pixel */
"50 49 134 2 ",
"   c None",
".  c #00001B",
"X  c #0D002E",
"o  c #1A0029",
"O  c #0C0032",
"+  c #130734",
"@  c #001E35",
"#  c #22002F",
"$  c #2C002F",
"%  c #20082B",
"&  c #220033",
"*  c #2E0F3C",
"=  c #3C0337",
"-  c #2D1339",
";  c #002235",
":  c #142F30",
">  c #003434",
",  c #003939",
"<  c #153535",
"1  c #183434",
"2  c #173E3A",
"3  c #193E3A",
"4  c #2C2323",
"5  c #2C2B2C",
"6  c #352E2E",
"7  c #382F2F",
"8  c #2C322E",
"9  c #31342F",
"0  c #2F2337",
"q  c #33253B",
"w  c #342E38",
"e  c #223535",
"r  c #213B3B",
"t  c #2A383A",
"y  c #353535",
"u  c #3B3434",
"i  c #353933",
"p  c #383836",
"a  c #373738",
"s  c #38343B",
"d  c #3C3C3C",
"f  c #532C2C",
"g  c #423A3A",
"h  c #4A3F3F",
"j  c #612D2D",
"k  c #633636",
"l  c #613C3C",
"z  c #6E3B3B",
"x  c #3A4135",
"c  c #3D403B",
"v  c #375C37",
"b  c #44443E",
"n  c #425134",
"m  c #485838",
"M  c #4F633B",
"N  c #447A3D",
"B  c #5E7538",
"V  c #5E7D3A",
"C  c #004343",
"Z  c #434343",
"A  c #484545",
"S  c #4A4A4A",
"D  c #535C47",
"F  c #56554F",
"G  c #515151",
"H  c gray36",
"J  c #546344",
"K  c #577141",
"L  c #657D4C",
"P  c #82003A",
"I  c #8B3A35",
"U  c #803838",
"Y  c #8D3838",
"T  c #923636",
"R  c #9F3333",
"E  c #973A3C",
"W  c #A52F3C",
"Q  c #AF3737",
"!  c #8A433C",
"~  c #CD423F",
"^  c #F63F40",
"/  c #DA4545",
"(  c #D45858",
")  c #E34140",
"_  c #EE4443",
"`  c #EF4D48",
"'  c #F64747",
"]  c #FE4B4C",
"[  c #FE5555",
"{  c #FF5E5E",
"}  c #E16D6D",
"|  c #FC6565",
" . c #6D874C",
".. c #729145",
"X. c #769B4B",
"o. c #6D8059",
"O. c #71865A",
"+. c #728959",
"@. c #7A9A53",
"#. c #79965B",
"$. c #7D9B58",
"%. c #7AA14B",
"&. c #87B34E",
"*. c #84A854",
"=. c #87B350",
"-. c #89B555",
";. c #8DBC50",
":. c #8EB45E",
">. c #8FBC5C",
",. c #90B959",
"<. c #92BC60",
"1. c #96C55C",
"2. c #98C55E",
"3. c #99CA5C",
"4. c #9CD05B",
"5. c #A3D95D",
"6. c #97C660",
"7. c #9DCC64",
"8. c #A3D661",
"9. c #A6DC62",
"0. c #A9DE67",
"q. c #ACE563",
"w. c #ADE962",
"e. c #ABE268",
"r. c #AFE868",
"t. c #B2EE66",
"y. c #B5F266",
"u. c #BAFA67",
"i. c #B9F769",
"p. c #BCFB6A",
"a. c #C1FF6E",
"s. c #C6FF71",
"d. c #CBFF71",
"f. c #FF8585",
/* pixels */
"                                                                                                    ",
"                                                                                                    ",
"                                                                                                    ",
"                                                                                                    ",
"                                                                                                    ",
"                                                                                                    ",
"                                                                                                    ",
"                                                                                                    ",
"                                                                                                    ",
"                                                                                                    ",
"                                                                                                    ",
"                                                                                                    ",
"                                                                                                    ",
"                                                                                                    ",
"                                            S d S                                                   ",
"                                  Z G Z S d y 5 d d                                                 ",
"                            S S A a d G d a a y y y S                                               ",
"                          S Z Z A d S Z d S y a y 5 a A                                             ",
"                        y 5 A Z A Z Z d S y y a 5 9 d w                                             ",
"                    A 5 y g d d d A y d A d A a i o X n @.>.1.3.3.6.1.-.L                           ",
"                    Z y Z A 4 y a a a a a A Z c # V q.t.u.u.u.u.p.p.d.e.                            ",
"                      A Z y r 7 a a a u 7 e d p y m 5.p.y.t.y.y.y.w.t.t.#.                          ",
"                    h > Y _ j < d a u 1 > l g 8 - . ;.a.u.i.y.i.p.s.t.                              ",
"                      C Q { } : d g > k ( [ Y @ ..w.s.a.u.t.q.9.4.9.<.                              ",
"                      C R [ | ! 2 t z ' f.{ I ; B w.w.%.M s                                         ",
"                      S 6 ) ^ P ; 3 / ] ] _ y y & % 5 O 0                                           ",
"                        r f E X.K = ` ' ] T > g i 5 y x Z                                           ",
"                        F + N p.t.v W ~ U > u a 5 y a a                                             ",
"                          b $ &.=.y , , > 7 y a d y y H                                             ",
"                            d q * s g g u y y y y d                                                 ",
"                                  Z Z A A d y y S                                                   ",
"                                              S                                                     ",
"                                                A             O.                                    ",
"                                                S A         +.@.:.7.                                ",
"                                                  S d     J @.,.9.9.0.r.7.                          ",
"                                                    S Z D  .*.1.8.r.t.e.                            ",
"                                                          o.$.:.0.7.#.                              ",
"                                                                  2.                                ",
"                                                                                                    ",
"                                                                                                    ",
"                                                                                                    ",
"                                                                                                    ",
"                                                                                                    ",
"                                                                                                    ",
"                                                                                                    ",
"                                                                                                    ",
"                                                                                                    ",
"                                                                                                    ",
"                                                                                                    "
};
