/* XPM */
static char *result[] = {
/* columns rows colors chars-per-pixel */
"46 50 240 2 ",
"   c #010000",
".  c #090809",
"X  c #18170E",
"o  c #141213",
"O  c #19181A",
"+  c #100C14",
"@  c #241F1C",
"#  c #1E221F",
"$  c #1B1B21",
"%  c #1F2235",
"&  c #292625",
"*  c #3C352B",
"=  c #3C3936",
"-  c #3A3735",
";  c #2F3038",
":  c #2B270E",
">  c #472700",
",  c #45381E",
"<  c #743D03",
"1  c #473A2D",
"2  c #443E3A",
"3  c #463C36",
"4  c #314333",
"5  c #5C4210",
"6  c #6B4B05",
"7  c #45423E",
"8  c #4D433A",
"9  c #4C4538",
"0  c #544A3D",
"q  c #524438",
"w  c #4C432B",
"e  c #654C35",
"r  c #7D7A2E",
"t  c #050646",
"y  c #010555",
"u  c #021D4E",
"i  c #032858",
"p  c #0E2A4C",
"a  c #3B3447",
"s  c #061A79",
"d  c #0A126E",
"f  c #082879",
"g  c #0A3362",
"h  c #232461",
"j  c #473D4B",
"k  c #384446",
"l  c #2C4642",
"z  c #075965",
"x  c #04496B",
"c  c #3C486F",
"v  c #006871",
"b  c #484646",
"n  c #544542",
"m  c #534B43",
"M  c #5C4C45",
"N  c #534C4A",
"B  c #5C4644",
"V  c #5C5244",
"C  c #53514F",
"Z  c #5B534C",
"A  c #545453",
"S  c #5B5956",
"D  c #524F50",
"F  c #64544C",
"G  c #655B4D",
"H  c #665546",
"J  c #655B53",
"K  c #695E53",
"L  c #665C5A",
"P  c #715955",
"I  c #6E5647",
"U  c #6D6354",
"Y  c #6C645B",
"T  c #676357",
"R  c #736353",
"E  c #73645B",
"W  c #756A5C",
"Q  c #7B6C5B",
"!  c #776855",
"~  c #7F715D",
"^  c #736648",
"/  c #545B71",
"(  c #6E5A60",
")  c #526B75",
"_  c #6A6865",
"`  c #756B63",
"'  c #796A63",
"]  c #777469",
"[  c #787172",
"{  c #88692F",
"}  c #856A1A",
"|  c #83725D",
" . c #877356",
".. c #917350",
"X. c #846D65",
"o. c #847464",
"O. c #8A7564",
"+. c #8C7B6C",
"@. c #85786A",
"#. c #927D6C",
"$. c #8B7C72",
"%. c #9A7E78",
"&. c #748378",
"*. c #998F28",
"=. c #958755",
"-. c #AA8A58",
";. c #A99651",
":. c #9EA149",
">. c #B3AB5B",
",. c #89856B",
"<. c #978869",
"1. c #8A8576",
"2. c #938374",
"3. c #9A8675",
"4. c #9E8B76",
"5. c #93857A",
"6. c #988B7B",
"7. c #97956B",
"8. c #B6946E",
"9. c #B59B7A",
"0. c #A98C70",
"q. c #A8A169",
"w. c #B8A475",
"e. c #B7B365",
"r. c #C09C62",
"t. c #CBA76A",
"y. c #C9BA7A",
"u. c #D8B576",
"i. c #D1A870",
"p. c #E9BB77",
"a. c #FABC7B",
"s. c #EDB46B",
"d. c #CAC876",
"f. c #CBD072",
"g. c #FACD7E",
"h. c #001085",
"j. c #0F2C87",
"k. c #232585",
"l. c #084689",
"z. c #004699",
"x. c #0D5498",
"c. c #2C4A8B",
"v. c #056E8F",
"b. c #0E58AC",
"n. c #056CA7",
"m. c #0D69B7",
"M. c #0C6FB3",
"N. c #52788A",
"B. c #0279C6",
"V. c #096AC3",
"C. c #8A7F89",
"Z. c #00839C",
"A. c #1486A3",
"S. c #1398AC",
"D. c #2B8FB1",
"F. c #7692A2",
"G. c #0784C9",
"H. c #0695C7",
"J. c #0098D4",
"K. c #1796CE",
"L. c #219CDA",
"P. c #04A8DB",
"I. c #12ADD3",
"U. c #2BB6D6",
"Y. c #19B9E1",
"T. c #0AACE2",
"R. c #23A2E2",
"E. c #21BAE8",
"W. c #8A8886",
"Q. c #988983",
"!. c #9A9789",
"~. c #989591",
"^. c #8C9484",
"/. c #A69787",
"(. c #AA998D",
"). c #A9A38C",
"_. c #B6A689",
"`. c #AFA59D",
"'. c #B6A893",
"]. c #BABD94",
"[. c #A9A8A3",
"{. c #BAB6A8",
"}. c #B9B2AA",
"|. c #CBB587",
" X c #DBB682",
".X c #D9BA95",
"XX c #CFB192",
"oX c #E8BB87",
"OX c #F9BE8E",
"+X c #C5B8A7",
"@X c #C4BAB4",
"#X c #D0BFA1",
"$X c #D4C38D",
"%X c #C9C19C",
"&X c #D1C195",
"*X c #D8DA90",
"=X c #E7C287",
"-X c #F9C78B",
";X c #FAD489",
":X c #E4CB97",
">X c #FBCD95",
",X c #E7D39D",
"<X c #FDD293",
"1X c #FCD698",
"2X c #F8E49C",
"3X c #E1E199",
"4X c #DAC7A8",
"5X c #D8C8B5",
"6X c #D4D1B6",
"7X c #E6CBA6",
"8X c #FCDAA7",
"9X c #E7D7B9",
"0X c #F6DEBB",
"qX c #EDDCAD",
"wX c #DFE4BF",
"eX c #FDE5AC",
"rX c #E8E5B8",
"tX c #FEE2B3",
"yX c #F8E8B6",
"uX c #F7E8AF",
"iX c #B8BEC1",
"pX c #C6C6C5",
"aX c #D2CDC5",
"sX c #DAD4CB",
"dX c #DBDAD7",
"fX c #E7DAC5",
"gX c #E2DBD6",
"hX c #D9E0C2",
"jX c #FCEBC6",
"kX c #F8F1CB",
"lX c #E9E4D8",
"zX c #FFF6D3",
"xX c #E6E7E8",
"cX c #F6F3ED",
"vX c #EDF2F2",
"bX c #FEFCF5",
"nX c #FFFEFB",
"mX c #F5F5F2",
"MX c #F4EFE7",
"NX c None",
/* pixels */
"NXNXNXNXNXNXNXNXNXNXNXNXNXNXNXNXNXNXNXNXNX@.NXNXNXNXNXNXNXNXNXNXNXNXNXNXNXNXNXNXNXNXNXNXNXNX",
"NXNXNXNXNXNXNXNXNXNXNXNXNXNXNXNXNXNX` o.+.#.$.Y Z C NXNXNXNXNXNXNXNXNXNXNXNXNXNXNXNXNXNXNXNX",
"NXNXNXNXNXNXNXNXNXNXNXNXNXNXNXNXZ $./.(.(./././.6.` b NXNXNXNXNXNXNXNXNXNXNXNXNXNXNXNXNXNXNX",
"NXNXNXNXNXNXNXNXNXNXNXNXNXNXNX= Q._./.4.4.6.3.$.5.5.' 3 NX_ NXNXNXNXNXNXNXNXNXNXNXNXNXNXNXNX",
"NXNXNXNXNXNXNXNXNXNXNXNXNXNXNX] (.4.4.#.#.O.X.$.2.o.+.! X X o O b NXNXNXNXNXNXNXNXNXNXNXNXNX",
"NXNXNXNXNXNXNXNXNXNXNXNXNXNXZ /./.3.#.+XsXfX@X$.X.@.~ o.V + & $ . O S NXNXNXNXNXNXNXNXNXNXNX",
"NXNXNXNXNXNXNXNXNXNXNXNXNXN %.Q.2.3.fXbXbXbXnXgXo.W Q Q K O + $ % O o S NXNXNXNXNXNXNXNXNXNX",
"NXNXNXNXNXNXNXNXNXNXNXNXS ` /.6.X.}.cXdXMXvXdXnX{.H Q R K j . $ $ O # O NXNXNXNXNXNXNXNXNXNX",
"NXNXNXNXNXNXNXNXNXNXNXNX0 6.2.2.! aX@X  pXiX  sXgX, E R K m & o O o @ . D NXNXNXNXNXNXNXNXNX",
"NXNXNX_ b - NXNXNXNXNX8 2.2.#.#.Q `.aX[ dXpX_ gX@X1 E F G n - * o o o & O NXNXNXNXNXNXNXNXNX",
"NXNXNX7 b T Z 7 = 2 2 $.3.O.O.| O.R pXmXvXvXcXsXK F G F H 0 * 8 2 &   $ O NXNXNXNXNXNXNXNXNX",
"NXNXNXNXN ` Y U K G J @.+.O.O.| ' P ] dXaXaXMX&.1 K M M M q 1 9 M B 2 & . A NXNXNXNXNXNXNXNX",
"NXNXNXNX2 A Z Z M 0 e o.o.' | Q ` ` ' ~.W.5.!.W V M M m q 3 w 0 0 F P L m 3 A A A D D NXNXNX",
"NXNXNXNXNX7 m N M 8 H X.| | Q Q U T L 3 2 1 : 0 0 m m m n 8 q 0 V F P E ' ' E X.E Z = NXNXNX",
"NXNXNXNXNXNX= 2 8 3 B X.' ! e e w 4 ; k k k b ; ; - * , , 3 N Z Z G ^ ! | O.#.5.1.Z S NXNXNX",
"NXNXNXNXNXNXNXN 7 * 1 P Z 4 z v.Z.A.A.S.A.n.v.v.l.x g u p a j D F U ! E X.X.$.2.E 7 NXNXNXNX",
"NXNXNXNXNXNXNXNXNXb & 4 v S.I.E.E.E.Y.I.I.G.G.V.b.b.b.l.f i u p j F ' [ $.$.%.@.N NXNXNXNXNX",
"NXNXNXNXNXNXNXNXNXNX&.S.U.U.Y.T.P.P.P.P.J.G.B.V.b.b.b.j.j.f f d t t j L ' ' ' b NXNXNXNXNXNX",
"NXNXNXNXNXNXNXNXNXNXF.H.U.I.T.T.R.R.L.K.K.B.V.V.b.z.j.s s j.s d f y i p A b NXNXNXNXNXNXNXNX",
"NXNXNXNXNXNXNXNXNXNXT D.D.H.H.H.B.M.n.n.M.n.x.j.z.c N./ h d k.k.j.d c.c W.NXNXNXNXNXNXNXNXNX",
"NXNXNXNXNXNXNXNXNXNX_ &.&.) z ) N./ ) ) z p / / [ W.W.W.[ t d h.h.h.c.c.NXNXNXNXNXNXNXNXNXNX",
"NXNXNXNXNXNXNXNXNXNXNX! ] ] T &.{.6X@X~.( X.Q.Q.6.#.P P ( ; B j a t f h NXNXNXNXNXNXNXNXNXNX",
"NXNXNXNXNXNXNXNXNXNXNXW.N [ U K ^.lX`.3.(.Q.X.e > > 1 B { %. Xi.8.9.| A NXNXNXNXNXNXNXNXNXNX",
"NXNXNXNXNXNXNXNXNXNXNXNX[.Y K W   +X).3 Z M J _ 1.~.`.(.XXOXa.OX-X.X5.}.NXNXNXNXNXNXNXNXNXNX",
"NXNXNXNXNXNXNXNXNXNXNXNXpX{.lXlX6.5XfXo.[ X [.xXvXvXnX5XoX-Xs.s.t.-.8._.NXNXNXNXNXNXNXNXNXNX",
"NXNXNXNXNXNXNXNXNXNXNXNX[.dXbXbX@XfXyX+XdXb 6XnXnXbXlXXX-X;Xa.s.i.u.oX.X).NXNXNXNXNXNXNXNXNX",
"NXNXNXNXNXNXNXNXNXNXNXNXNX!.9X5X7XqX0X4X6X+X5XfX9X4XXXoX;Xg.s.p.>Xt.,XqX/.NXNXNXNXNXNXNXNXNX",
"NXNXNXNXNXNXNXNXNXNXNXNXNX/.qX7X0X,XuXtX7X7X:X Xu.u.-X-Xg.g.p.u.>X:XyX#XNXNXNXNXNXNXNXNXNXNX",
"NXNXNXNXNXNXNXNXNXNXNXNXNX'.jXjXjX0X8X0XtX8X=X;X;X1X1X1X;Xg.p...y.yX7X4.NXNXNXNXNXNXNXNXNXNX",
"NXNXNXNXNXNXNXNXNXNXNXNXNX6.jXkX0XjXtX8X8XeX=X>X8X<X<X<X;Xg.8.%.6.'.(.NXNXNXNXNXNXNXNXNXNXNX",
"NXNXNXNXNXNXNXNXNXNXNXNXNXNX'.zXzXtX8XtXeX8X1X8X1X<X1X1Xu.0.NXNXNXNXNXNXNXNXNXNXNXNXNXNXNXNX",
"NXNXNXNXNXNXNXNXNXNXNXNXNXNXNX'.9XkXyXyXyXtXuXeXeX;Xt.t.4.NXNXNXNXNXNXNXNXNXNXNXNXNXNXNXNXNX",
"NXNXNXNXNXNXNXNXNXNXNXNXNXNXNXNX).'.|.$X$Xy.y.y.>.-.+X@XNXNXNXNXNXNXNXNXNXNXNXNXNXNXNXNXNXNX",
"NXNXNXNXNXNXNXNXNXNXNXNXNXNXNXNXNX1.! ^ %X%Xq.:.r | {.NXNXNXNXNXNXNXNXNXNXNXNXNXNXNXNXNXNXNX",
"NXNXNXNXNXNXNXNXNXNXNXNXNXNXNXNXNX5.5 | '.fXyXd.*.e.e.q.NXNXNXNXNXNXNXNXNXNXNXNXNXNXNXNXNXNX",
"NXNXNXNXNXNXNXNXNXNXNXNXNXNXNXNXNX,.%X@.$ 3.,X2Xe.:.f.f.!.NXNXNXNXNXNXNXNXNXNXNXNXNXNXNXNXNX",
"NXNXNXNXNXNXNXNXNXNXNXNXNXNXNXNX5.).kXwX6.6 r y.$Xq.>.*X].NXNXNXNXNXNXNXNXNXNXNXNXNXNXNXNXNX",
"NXNXNXNXNXNXNXNXNXNXNXNXNXNXNXNX'.%XkXyXyXXX{ < -.>.:.d.*X7.NXNXNXNXNXNXNXNXNXNXNXNXNXNXNXNX",
"NXNXNXNXNXNXNXNXNXNXNXNXNX_.o.w.&X%XkXrXrXrX,X;.} } =.d.3X].NXNXNXNXNXNXNXNXNXNXNXNXNXNXNXNX",
"NXNXNXNXNXNXNXNXNXNXNXNX_.,X=.w.w.6XkXhXhXrXrX2Xt.{ 6 :.>.7.^.NXNXNXNXNXNXNXNXNXNXNXNXNXNXNX",
"NXNXNXNXNXNXNXNXNXNXNXNX .|.-.-.=.,.^.] 1.1.,.<.-.I r.i.t.u.w.NXNXNXNXNXNXNXNXNXNXNXNXNXNXNX",
"NXNXNXNXNXNXNXNXNXNXNXNXNX ..X9.R   S ; b       O . oX>X-X<XXX_ NXNXNXNXNXNXNXNXNXNXNXNXNXNX",
"NXNXNXNXNXNXNXNXNXNXNXNXNX[ Q.'.NXNXS C T b m q & T t.oXOX-X-.NXNXNXNXNXNXNXNXNXNXNXNXNXNXNX",
"NXNXNXNXNXNXNXNXNXNXNXNXNXNXNXNXNXNXV m Z T K U S NXK O.....NXNXNXNXNXNXNXNXNXNXNXNXNXNXNXNX",
"NXNXNXNXNXNXNXNXNXNXNXNXNXNXNXNXNXNXY T m NXm G _ NXNXNXNXNXNXNXNXNXNXNXNXNXNXNXNXNXNXNXNXNX",
"NXNXNXNXNXNXNXNXNXNXNXNXNXNXNXNXNXNX= X X NX# X & NXNXNXNXNXNXNXNXNXNXNXNXNXNXNXNXNXNXNXNXNX",
"NXNXNXNXNXNXNXNXNXNXNXNXNXNXNXNXNXj ; b # o - Z 3 NXNXNXNXNXNXNXNXNXNXNXNXNXNXNXNXNXNXNXNXNX",
"NXNXNXNXNXNXNXNXNXNXNXNXNXNXNXNX.   k A     7 Y NXNXNXNXNXNXNXNXNXNXNXNXNXNXNXNXNXNXNXNXNXNX",
"NXNXNXNXNXNXNXNXNXNXNXNXNXNXNXNXb 7 C NX= 2 NXNXNXNXNXNXNXNXNXNXNXNXNXNXNXNXNXNXNXNXNXNXNXNX",
"NXNXNXNXNXNXNXNXNXNXNXNXNXNXNXNXNXNXNXNXNXNXNXNXNXNXNXNXNXNXNXNXNXNXNXNXNXNXNXNXNXNXNXNXNXNX"
};
