/* XPM */
static char *result[] = {
/* columns rows colors chars-per-pixel */
"50 50 248 2 ",
"   c #000C0D",
".  c #090303",
"X  c #160200",
"o  c #1A0400",
"O  c #1E0B01",
"+  c #000D12",
"@  c #011215",
"#  c #051619",
"$  c #16130E",
"%  c #230D01",
"&  c #280801",
"*  c #390500",
"=  c #231001",
"-  c #291809",
";  c #2F190B",
":  c #352515",
">  c #161E24",
",  c #1A2928",
"<  c #193230",
"1  c #242C2D",
"2  c #2B2D2E",
"3  c #26272A",
"4  c #25312C",
"5  c #2C332D",
"6  c #26392E",
"7  c #32312D",
"8  c #262E31",
"9  c #2B2D32",
"0  c #292B38",
"q  c #312E33",
"w  c #372F35",
"e  c #243132",
"r  c #2C3233",
"t  c #2A373A",
"y  c #333233",
"u  c #32363A",
"i  c #343A3C",
"p  c #393938",
"a  c #352E26",
"s  c #580800",
"d  c #4A1200",
"f  c #651702",
"g  c #771E00",
"h  c #4F2B13",
"j  c #772B0F",
"k  c #543B29",
"l  c #703A2A",
"z  c #79442C",
"x  c #6B5438",
"c  c #615133",
"v  c #3B3C42",
"b  c #1D3E45",
"n  c #413F44",
"m  c #264B4C",
"M  c #3B4345",
"N  c #3A4649",
"B  c #2C5556",
"V  c #335758",
"C  c #314B51",
"Z  c #2B5D61",
"A  c #2A6965",
"S  c #376C6B",
"D  c #36746C",
"F  c #3A7575",
"G  c #366F72",
"H  c #1C5A5A",
"J  c #454A4D",
"K  c #6E665A",
"L  c #477578",
"P  c #587777",
"I  c #4B6B6B",
"U  c #667875",
"Y  c #6E766A",
"T  c #645F55",
"R  c #96390D",
"E  c #9A3D13",
"W  c #943B16",
"Q  c #88320B",
"!  c #A53D15",
"~  c #883B25",
"^  c #9D4316",
"/  c #9D431A",
"(  c #994616",
")  c #954B14",
"_  c #A4441A",
"`  c #A5471A",
"'  c #B24E1E",
"]  c #894827",
"[  c #934D2C",
"{  c #984827",
"}  c #8D522B",
"|  c #92512A",
" . c #854B37",
".. c #954D34",
"X. c #8B5537",
"o. c #97593A",
"O. c #A64B24",
"+. c #B54828",
"@. c #A95529",
"#. c #B85829",
"$. c #A75739",
"%. c #B95C37",
"&. c #B96539",
"*. c #B1622D",
"=. c #C35D2C",
"-. c #C35D34",
";. c #C2653B",
":. c #C46B3C",
">. c #C76738",
",. c #C86F39",
"<. c #935A45",
"1. c #885950",
"2. c #A85F48",
"3. c #966848",
"4. c #9B6B55",
"5. c #9A7659",
"6. c #906E4D",
"7. c #A86947",
"8. c #BD6442",
"9. c #B96948",
"0. c #BD764A",
"q. c #BC7758",
"w. c #AD6954",
"e. c #AE7664",
"r. c #C46A41",
"t. c #CB6D42",
"y. c #C56745",
"u. c #C87545",
"i. c #D5794A",
"p. c #C87757",
"a. c #D77A55",
"s. c #C96E4B",
"d. c #E57E5B",
"f. c #E97E48",
"g. c #CE7B62",
"h. c #E07E61",
"j. c #718479",
"k. c #A5866F",
"l. c #988565",
"z. c #CB835D",
"x. c #D4845C",
"c. c #DC845A",
"v. c #DB8356",
"b. c #D68247",
"n. c #E5854C",
"m. c #EA8748",
"M. c #E48554",
"N. c #E48A54",
"B. c #EA8B54",
"V. c #E3845B",
"C. c #EB835B",
"Z. c #E48B5D",
"A. c #EB8A5C",
"S. c #EB8455",
"D. c #E79459",
"F. c #FD9E5D",
"G. c #F48C58",
"H. c #F3A55E",
"J. c #C98666",
"K. c #DA8662",
"L. c #DB8A63",
"P. c #D68867",
"I. c #D49771",
"U. c #E88A64",
"Y. c #F99A64",
"T. c #EA986A",
"R. c #DBA57A",
"E. c #FDA263",
"W. c #FEAA6D",
"Q. c #FCA66A",
"!. c #F8A974",
"~. c #FBB17A",
"^. c #F0AE75",
"/. c #3E7B80",
"(. c #587A83",
"). c #637F82",
"_. c #3C8D8B",
"`. c #5A8286",
"'. c #478D93",
"]. c #4A9498",
"[. c #589799",
"{. c #4E8C8D",
"}. c #66888A",
"|. c #778986",
" X c #63969B",
".X c #629C9C",
"XX c #6A979A",
"oX c #6D918F",
"OX c #66A19F",
"+X c #599DA3",
"@X c #4E9CA3",
"#X c #679CA1",
"$X c #4DA3A7",
"%X c #54A3A3",
"&X c #5AA5A6",
"*X c #59A7AA",
"=X c #59AEB3",
"-X c #65A3A3",
";X c #6AA4A3",
":X c #68A7AA",
">X c #74A7AA",
",X c #66AAB1",
"<X c #76ABB3",
"1X c #68B6B8",
"2X c #78B4B9",
"3X c #56A09F",
"4X c #76C2BD",
"5X c #68BDC2",
"6X c #76BDC3",
"7X c #6CC4C3",
"8X c #76C6C9",
"9X c #7DCBD1",
"0X c #7DD5D8",
"qX c #6ED1D6",
"wX c #8A9791",
"eX c #96A899",
"rX c #88A5A6",
"tX c #84BABA",
"yX c #94B0AF",
"uX c #A4A9A0",
"iX c #F5B283",
"pX c #DCBAAC",
"aX c #DFB7A8",
"sX c #8BC2BE",
"dX c #AEC3BC",
"fX c #D2C1B7",
"gX c #87BCC3",
"hX c #88C8CA",
"jX c #97CBCA",
"kX c #88CDD3",
"lX c #84D2D5",
"zX c #86DADD",
"xX c #89D6D9",
"cX c #97D4D7",
"vX c #95D1CF",
"bX c #A3D1D1",
"nX c #87DBE3",
"mX c #93DCE2",
"MX c #96E4E9",
"NX c #86E3E7",
"BX c #A3E3EC",
"VX c #C5EDE5",
"CX c #C9EBE9",
"ZX c #C7EFF0",
"AX c #F3FFFF",
"SX c #FCFEF2",
"DX c #FBF6EE",
"FX c None",
/* pixels */
"FXFXFXFXFXFXFXFXFXFXFXFXFXFXFXFXFXFXFXFXD D _.D j.I 1.w.$.#.&.z aXDXSXFXFXFXFXFXFXFXFXFXFXFXFXFXFXFX",
"FXFXFXFXFXFXFXFXFXFXFXFXFXFXFXFXFX`.S [.4X4XsXsXjXl.l q.^.u.) z.z pXDXSXFXFXFXFXFXFXFXFXFXFXFXFXFXFX",
"FXFXFXFXFXFXFXFXFXFXFXFXFXFXFXL F cX8XlXzX4X:XrXj.l.I.^.~.*.*.P...* pXDXFXFXFXFXFXFXFXFXFXFXFXFXFXFX",
"FXFXFXFXFXFXFXFXFXFXFXFXFX}.(.hX8X=X=X1X4XhXj.T x z.^.^.b.Q &.z.O.9.1.pXDXFXFXFXFXFXFXFXFXFXFXFXFXFX",
"FXFXFXFXFXFXFXFXFXFXFX(.F gXvXmX1X@X@X(.6XgXj.x I.D.H.W.b.) >.Z.E a.q.l fXFXFXFXFXFXFXFXFXFXFXFXFXFX",
"FXFXFXFXFXFXFXFXFXFX#XgXkX,X,X,XhX<X#X}.b 3 . X.b.E.D.*.n.) #.M.` >.P. .k dXFXFXFXFXFXFXFXFXFXFXFXFX",
"FXFXFXFXFXFXFXFXFX(.<XBX,X+X]..XrXyXb + 1 ; h 7.D.H.B.#.M.O.#.B.` *.z.z k.j.dXFXFXFXFXFXFXFXFXFXFXFX",
"FXFXFXFXFXFXFXFXXX<X6X+XgX6X[.j.< > 0 2 w ; <.P.b.W.Y.#.d.+.=.B.) &.x.} a uX{.hXFXFXFXFXFXFXFXFXFXFX",
"FXFXFXFXFXFXFXXX>X2X[.+X:XtXm   6 $ 6 5 a % ..U.N.E.H.*.Z.+.=.n./ 9.x.} ; Y dXj.vXFXFXFXFXFXFXFXFXFX",
"FXFXFXFXFXFX`.OXxX'.#X X`.6 , 4 6 6 6 , a h 2.V.W.W.) *.U.O.=.f.E 8.c.{ z K >XcXA FXFXFXFXFXFXFXFXFX",
"FXFXFXFXFXFX&X1XmX6X#X}.m   u 5 6 , < 6 - 1.P.A.H.W.) *.C.+.>.a._ 8.d.O.p.K eXcX{.bXFXFXFXFXFXFXFXFX",
"FXFXFXFXFX`.1X7X@XgXXX@ 4 i 3 2 5 , e 7 o <.U.G.H.H.) *.U.` -.S.E y.d.! p.4.Y XXcXZ FXFXFXFXFXFXFXFX",
"FXFXFXFXFX#X$X4X{.XXC + p 3 9 9 2 u 3 k & ~ U.f.W.W.) *.U.` ;.M.W y.d.+.y.<.Y oXkX'.bXFXFXFXFXFXFXFX",
"FXFXFXFX`.,X4X_.#X}., 3 q q q 3 2 q 3 3 j &.G.G.E.D.| @.c.#.#.f.^ ;.f.! i.3.5.|.{.xXZ FXFXFXFXFXFXFX",
"FXFXFXFX#X1X0X1X>Xe > v 0 , b 0 2 w a % } T.b.E.W.u.@.%.U.` #.G.( ,.d.E i.J.h j.gX8X@XkXFXFXFXFXFXFX",
"FXFXFX}.*X7X4X0X}.> 9 q 8 e 0 0 9 2 w & ] D.m.E.~.u.{ 9.x./ >.f.( &.M.` r.z.k eXvX1XzXH FXFXFXFXFXFX",
"FXFXFXOX=X4X_..X0 > w 9 e e 8 y 9 2 w & [ U.N.F.Q.u.| *.L.W y.C.O.&.v.E u.P.z T }.&XxXA FXFXFXFXFXFX",
"FXFXFX[.%X8X]. Xv + v 0 e 8 8 9 1 e w & [ c.B.W.~.&.@.&.K.O.%.V._ &.Z./ ;.P.<.. (.%X0XA CXFXFXFXFXFX",
"FXFXFX;X4X$X'.{.b > w 0 e e e 9 4 2 w & } L.n.,.b.` g >.A.! #.f.E &.c.W ;.a. .O P +X5X+XjXFXFXFXFXFX",
"FXFXoX3XNX4X8XV + n 3 0 b e 9 r 5 2 p = X.c.>.#.#.t.' ! #.Q >.A._ ;.x.W y.K.z o rXkX7XmXm ZXFXFXFXFX",
"FXFX>X[.zX8X8XS . n 0 q 9 0 e 4 1 5 y O <.0.O.S.h.a.a.-.t.! R #.g r.c.W a.a.~ & oXvX0X0X/.ZXFXFXFXFX",
"FXFXXX&XqX_.#Xm # 0 0 q 8 8 2 4 4 4 5 = <.0.@.A.y.y.h.g.p.s.&.,.^ O.@.g a.g.] & U [.@XnX/.ZXFXFXFXFX",
"FXFX>X&X8X].+Xm > 3 q q 2 9 e 4 4 3 5 = o.x.t.@.{ y.g.p.p.J.z.b.y.%.p.~ ~ $.l & U OX$X0XG ZXFXFXFXFX",
"FXFX-X%X7X'. Xm @ u 9 q 2 u 4 4 4 5 a O X.L.A.` s j ..~ w.q.7.z.K.P.p.p.y.9.~ & U .X].0X/.ZXFXFXFXFX",
"FXFXOX*XzX8XjXI   i 3 q q 2 e 4 4 y y % } U.M.F.p.[ s f j ..] w.p.9.p.J.g.P.4.k eXhX9XnXG CXFXFXFXFX",
"FXFX3X*XzX8XsXV   t r y 9 9 4 1 1 e 7 % } Z.m.F.iX9.~ $.$.g s j O.~ w.g.2.p.iXx wXsX8XxXA CXFXFXFXFX",
"FXFX:X&X7X'. Xm @ < 9 y 3 q 8 1 0 9 7 % } N.m.F.W.u.@.y.h.Q @.@.s f j ....q.g.k P {.$XlXG CXFXFXFXFX",
"FXFXOX*X8X].XXC t M 9 r 2 q 1 0 9 9 5 = } N.m.F.!.u./ ;.d.O.:.i.Q $.o.f s Q  .h j..X%XlXL CXFXFXFXFX",
"FXFX>X&X6X[.XXV t J 6 9 9 9 2 r 0 r y = | D.m.F.W.0.@.&.d.! #.N./ 9.p.Q 9.$.d O P [.$XlXI CXFXFXFXFX",
"FXFX#X&XmXkXbXI > N e 1 0 9 8 r 8 9 y % | A.m.Y.^.0.] &.U.R =.M.E 9.K.W y.a.z O yXcXlXxXS CXFXFXFXFX",
"FXFX>X#XlX<XtXV , M u u t u 2 e t r 7 % { U.S.Q.iX6.d 7.P./ &.N./ &.c.R t.K.z = XX1X4XxXS CXAXFXFXFX",
"FXFX#X:X9X].#XV < t i M v v r M M i 7 = ..A.S.W.R.6.6.4.J.O.&.N._ r.a.E t.a.z X j.[.%XlXF CXAXFXFXFX",
"FXFX.X,X8X].#XV < v i i v v r N M r 7 - | M.B.!.R.4.k.4.J.` *.N.` >.b.R t.L. .X U +X@XnXS CXAXFXFXFX",
"FXFXOX*X8X%X;XB < M i v v v u i M u p - } N.M.!.I.5.e.4.J.( >.B._ &.v.R t.K. .X }.#X*X9XG VXAXFXFXFX",
"FXFX.X&XMXlXcXI @ u r r 9 u 2 e i r p - | M.N.Q.iX3.h 4.I.` >.S.` ;.V.^ ,.K. .X yXcXnXnXA VXAXFXFXFX",
"FXFX;X&XhX=X<XB   9 r 9 3 q 2 e 8 1 5 = | N.m.E.iX<.* 4.P.O.#.U._ ;.V.( t.P. .X |.<X5XnXD CXAXFXFXFX",
"FXFX;X&X8X].[.B # u 1 9 q w 8 1 0 r t = | B.m.F.iX7.* w.P.+.%.d.^ &.V./ t.K.1.X }.[.$XlXD VXAXFXFXFX",
"FXFXOX%X8X'.[.m @ t 3 9 q 9 1 8 0 r r = | G.m.Y.~.9.d <.I.+.-.d.R ;.U._ :.z.z X P %X$X9XA VXAXFXFXFX",
"FXFX;X&X9X+X>XB   i 8 q 9 9 8 r 8 9 5 = ) B.m.E.!.3.d 2.U.O.-.d.E -.C.E :.x. .O |.-X=XzXF VXAXFXFXFX",
"FXFXOX&XMXlXcXI   i 1 9 q 9 e 1 9 9 y = | B.f.Q.iX3.& 4.P.O.-.U._ >.a.R t.L.z O yXxXNXzXA VXAXFXFXFX",
"FXFXOX%X9X+X:XB   u 1 9 9 q 8 e 2 2 7 = [ B.M.Q.R.3.h 5.K.@.-.G.! &.a.R u.K.<.o }.-X=X0XD VXAXFXFXFX",
"FXFX.X%X9X]. XC @ i 1 9 9 q 9 1 2 2 y & { U.M.!.R.6.5.6.J.+.=.d.O.y.U.R t.p. .o }.[.*XlXD VXFXFXFXFX",
"FXFX;X&X8X'. Xm @ i 1 9 9 q 4 4 5 2 y % ..A.M.!.R.6.5.5.x.` =.d.! 8.V./ u.K. .o U {.@X0XD CXFXFXFXFX",
"FXFX;X+X9X*X<XB   u 2 9 9 9 8 e 2 2 r % ..U.V.!.R.3.5.3.x.( >.G._ y.c./ t.c. .X |.<X5XxXD VXFXFXFXFX",
"FXFX.X%XMXnXbXI   u 8 9 9 q 1 9 2 2 y = [ Z.S.Q.^.&.h 7.c.E =.i.W 8.K./ >.K. .& yXbXlXxXA FXFXFXFXFX",
"FXFX;X%X6X].#XB   u 8 9 3 q 1 e 9 2 r = } Z.n.E.Q.0.o.$.v.` >.v.( &.x.Q y.a. .& U  X,XxXD FXFXFXFXFX",
"FXFX;X*X9X].#XC @ p 2 8 9 9 e 4 9 9 6 = } c.m.F.W.i.{ &.S.' #.v.W 9.K.^ a.a.l X |.#X&XkXD FXFXFXFXFX",
"FXFX;X%X8X_.[.m # v 2 8 9 y e 9 0 9 t = } D.m.Y.W.i.+.&.A.' %.U.( &.x.g +.-.<.l Y }.3XlXF FXFXFXFXFX",
"FXFX:X$XqX7X7XB @ v 1 8 8 8 9 e 9 e r = | A.m.Y.W.u._ 8.U.O.;.i.Q @.:._ _ a.P.4.- oX8X0XD FXFXFXFXFX",
"FXFX,X$XNXqX0XF   v 8 8 9 8 9 9 9 r r = | B.B.E.W.,./ &.a.E #.t.` / r.D.V.i.q.w.k eXzXNXD FXFXFXFXFX"
};
