/* XPM */
static char *_0c7e5dca9744dbbcd204a3e233f1aaa2XCVcbMMwsPlHfEM[] = {
/* columns rows colors chars-per-pixel */
"50 50 240 2 ",
"   c None",
".  c #010000",
"X  c #090809",
"o  c #18170E",
"O  c #141213",
"+  c #19181A",
"@  c #100C14",
"#  c #241F1C",
"$  c #1E221F",
"%  c #1B1B21",
"&  c #1F2235",
"*  c #292625",
"=  c #3C352B",
"-  c #3C3936",
";  c #3A3735",
":  c #2F3038",
">  c #2B270E",
",  c #472700",
"<  c #45381E",
"1  c #743D03",
"2  c #473A2D",
"3  c #443E3A",
"4  c #463C36",
"5  c #314333",
"6  c #5C4210",
"7  c #6B4B05",
"8  c #45423E",
"9  c #4D433A",
"0  c #4C4538",
"q  c #544A3D",
"w  c #524438",
"e  c #4C432B",
"r  c #654C35",
"t  c #7D7A2E",
"y  c #050646",
"u  c #010555",
"i  c #021D4E",
"p  c #032858",
"a  c #0E2A4C",
"s  c #3B3447",
"d  c #061A79",
"f  c #0A126E",
"g  c #082879",
"h  c #0A3362",
"j  c #232461",
"k  c #473D4B",
"l  c #384446",
"z  c #2C4642",
"x  c #075965",
"c  c #04496B",
"v  c #3C486F",
"b  c #006871",
"n  c #484646",
"m  c #544542",
"M  c #534B43",
"N  c #5C4C45",
"B  c #534C4A",
"V  c #5C4644",
"C  c #5C5244",
"Z  c #53514F",
"A  c #5B534C",
"S  c #545453",
"D  c #5B5956",
"F  c #524F50",
"G  c #64544C",
"H  c #655B4D",
"J  c #665546",
"K  c #655B53",
"L  c #695E53",
"P  c #665C5A",
"I  c #715955",
"U  c #6E5647",
"Y  c #6D6354",
"T  c #6C645B",
"R  c #676357",
"E  c #736353",
"W  c #73645B",
"Q  c #756A5C",
"!  c #7B6C5B",
"~  c #776855",
"^  c #7F715D",
"/  c #736648",
"(  c #545B71",
")  c #6E5A60",
"_  c #526B75",
"`  c #6A6865",
"'  c #756B63",
"]  c #796A63",
"[  c #777469",
"{  c #787172",
"}  c #88692F",
"|  c #856A1A",
" . c #83725D",
".. c #877356",
"X. c #917350",
"o. c #846D65",
"O. c #847464",
"+. c #8A7564",
"@. c #8C7B6C",
"#. c #85786A",
"$. c #927D6C",
"%. c #8B7C72",
"&. c #9A7E78",
"*. c #748378",
"=. c #998F28",
"-. c #958755",
";. c #AA8A58",
":. c #A99651",
">. c #9EA149",
",. c #B3AB5B",
"<. c #89856B",
"1. c #978869",
"2. c #8A8576",
"3. c #938374",
"4. c #9A8675",
"5. c #9E8B76",
"6. c #93857A",
"7. c #988B7B",
"8. c #97956B",
"9. c #B6946E",
"0. c #B59B7A",
"q. c #A98C70",
"w. c #A8A169",
"e. c #B8A475",
"r. c #B7B365",
"t. c #C09C62",
"y. c #CBA76A",
"u. c #C9BA7A",
"i. c #D8B576",
"p. c #D1A870",
"a. c #E9BB77",
"s. c #FABC7B",
"d. c #EDB46B",
"f. c #CAC876",
"g. c #CBD072",
"h. c #FACD7E",
"j. c #001085",
"k. c #0F2C87",
"l. c #232585",
"z. c #084689",
"x. c #004699",
"c. c #0D5498",
"v. c #2C4A8B",
"b. c #056E8F",
"n. c #0E58AC",
"m. c #056CA7",
"M. c #0D69B7",
"N. c #0C6FB3",
"B. c #52788A",
"V. c #0279C6",
"C. c #096AC3",
"Z. c #8A7F89",
"A. c #00839C",
"S. c #1486A3",
"D. c #1398AC",
"F. c #2B8FB1",
"G. c #7692A2",
"H. c #0784C9",
"J. c #0695C7",
"K. c #0098D4",
"L. c #1796CE",
"P. c #219CDA",
"I. c #04A8DB",
"U. c #12ADD3",
"Y. c #2BB6D6",
"T. c #19B9E1",
"R. c #0AACE2",
"E. c #23A2E2",
"W. c #21BAE8",
"Q. c #8A8886",
"!. c #988983",
"~. c #9A9789",
"^. c #989591",
"/. c #8C9484",
"(. c #A69787",
"). c #AA998D",
"_. c #A9A38C",
"`. c #B6A689",
"'. c #AFA59D",
"]. c #B6A893",
"[. c #BABD94",
"{. c #A9A8A3",
"}. c #BAB6A8",
"|. c #B9B2AA",
" X c #CBB587",
".X c #DBB682",
"XX c #D9BA95",
"oX c #CFB192",
"OX c #E8BB87",
"+X c #F9BE8E",
"@X c #C5B8A7",
"#X c #C4BAB4",
"$X c #D0BFA1",
"%X c #D4C38D",
"&X c #C9C19C",
"*X c #D1C195",
"=X c #D8DA90",
"-X c #E7C287",
";X c #F9C78B",
":X c #FAD489",
">X c #E4CB97",
",X c #FBCD95",
"<X c #E7D39D",
"1X c #FDD293",
"2X c #FCD698",
"3X c #F8E49C",
"4X c #E1E199",
"5X c #DAC7A8",
"6X c #D8C8B5",
"7X c #D4D1B6",
"8X c #E6CBA6",
"9X c #FCDAA7",
"0X c #E7D7B9",
"qX c #F6DEBB",
"wX c #EDDCAD",
"eX c #DFE4BF",
"rX c #FDE5AC",
"tX c #E8E5B8",
"yX c #FEE2B3",
"uX c #F8E8B6",
"iX c #F7E8AF",
"pX c #B8BEC1",
"aX c #C6C6C5",
"sX c #D2CDC5",
"dX c #DAD4CB",
"fX c #DBDAD7",
"gX c #E7DAC5",
"hX c #E2DBD6",
"jX c #D9E0C2",
"kX c #FCEBC6",
"lX c #F8F1CB",
"zX c #E9E4D8",
"xX c #FFF6D3",
"cX c #E6E7E8",
"vX c #F6F3ED",
"bX c #EDF2F2",
"nX c #FEFCF5",
"mX c #FFFEFB",
"MX c #F5F5F2",
"NX c #F4EFE7",
/* pixels */
"                                                    [                                               ",
"                                            Z A T %.3.@.O.Q                                         ",
"                                          n ' 7.(.(.(.).).(.%.B                                     ",
"                                    `   4 ' 6.6.3.4.5.5.5.(.].!.-                                   ",
"                              F + O O o Q @.O.3.%.O.+.1.$.5.5.).[                                   ",
"                          S + X % * X C O. .O.o.%.@XdXdX@X4.4.(.(.A                                 ",
"                        D O % * % @ # L Q ^ ! O.hXmXnXnXnXgX3.3.(.6.n                               ",
"                        + $ % + + X 3 T Y ! J #XnXfXbXbXfXvX|.O.7.(.' D                             ",
"                      S X * O + O * M L Y Q < hXdX. pXaX. #XsX~ 3.3.7.M                             ",
"                      + * O O O = ; q H G W 2 }.fX` aXfX` sX'.! $.$.3.3.9           ; n `           ",
"                      + + . * 3 9 2 q G G H G K dXMXMXMXMXsXT O.+.+.+.3.%.3 3 - 8 A R n 8           ",
"                    S X * 3 B M w 2 w N N N L 4 #.NXsXsXhX' T ]  .+.+.@.#.K H L L R ' B             ",
"          Z Z S S Z 4 M K I G q q e 9 m V N N C Q ~.Q.!.^.' ' ' !  . .O.O.C w C A A A 3             ",
"          ; A T ] W ] ] W I G C q 0 9 m m M M M q > 2 9 4 K R Y Q ! ! !  .J w N M M 8               ",
"          D A 2.6.%.+.! ~ Y H G A B 9 < = = ; : : n l l l 5 5 e r r E o.+.V 4 9 3 ;                 ",
"            3 W 3.@.+.o.~ ~ Y K F s : a a h c z.c.b.b.S.S.S.S.A.b.x l A I 2 = n B                   ",
"              M #.6.%.@.#.' D s & i p g z.c.n.M.M.H.J.U.U.T.W.W.T.U.D.b z * n                       ",
"                n ' [ ' P n y u f g g k.c.n.n.n.C.V.H.K.K.I.I.I.R.T.T.Y.D.B.                        ",
"                    n S a i u d d d k.d d k.x.n.C.C.V.H.L.P.E.E.R.R.U.T.K.G.                        ",
"                      Q.v.v.f k.l.l.f j ( ( v z.x.m.m.N.m.m.N.V.H.L.J.F.B.(                         ",
"                        v.v.d j.j.f y { Q.Q.Q.{ P v p c _ _ ( B._ x _ *.*.T                         ",
"                        j p y s k N = ) I E @.7.!.!.{ T ^.#XsX}.2.Y [ ' W                           ",
"                        S  .0.9.p..X9.U V 2 , , r ] !.(.6.'.zX!.U R [ B Z.                          ",
"                        |.3.XX;Xs.s.;X X_.{.^.%.T K J J w _.@X. ! L ` {.                            ",
"                        `.9.;.y.d.d.;X-X6XnXbXbXcX{.o { [ gX6X6.zXzX|.aX                            ",
"                      _.XX-X.Xp.d.a.;X;XoXzXnXnXmX7XB hX@XqXqX6XnXnXdX{.                            ",
"                      (.wX<Xy.,Xa.d.:X:XOXoX5X0XgX6X@X6X5XiXwX5X6X0X~.                              ",
"                        $XuX>X,Xa.a.h.:X1X;Xi.i..X>X8X8XuXiX<XqX8XqX(.                              ",
"                        5.8XuXu.} a.h.:X1X2X2X:X:X-X9XyXyXyXqXkXkXlX].                              ",
"                          ).].3.&.9.a.1X1X1X1X9X,X-XrX9XyXyXkXqXlXkX6.                              ",
"                                    q.i.1X2X2X2X9X9X9X9XrX9XyXlXxX].                                ",
"                                      5.e.p.:X3XrXrXyXuXrXuXkX0X].                                  ",
"                                        #X@X1.r.u.u. X%X%X X`._.                                    ",
"                                          }.-.t >.w.&X$X/ ~ 3.                                      ",
"                                        w.r.r.=.f.uXgX].+.6 6.                                      ",
"                                      ~.f.g.>.r.3X<X1.+ @.@X<.                                      ",
"                                      [.=X,.w.%Xu.} 7 5.0XlX_.6.                                    ",
"                                    7.=Xf.>.,.;.1 X.XXuXkXkX&X].                                    ",
"                                    [.4Xf.-.| 7 ;.<XuXtXtXlX&X*Xe.O.`.                              ",
"                                  /.8.w.:.7 } p.wXiXtXeXjXzX7Xe.e.-.<X`.                            ",
"                                  0.i.y.i.t./ 1.1.1.2.2.[ /.#.-.;.;. X..                            ",
"                                ` .X1X,X1XOX. o . . . n : D . E 0.XX..                              ",
"                                  ;.;X+XOX0.D * w m m P B D     '.!.'                               ",
"                                    X.X...H   D Y K K A M A                                         ",
"                                              ` H M   M R T                                         ",
"                                              * o $   X o -                                         ",
"                                              - A ; O $ n : n                                       ",
"                                                T 8 . . S l . X                                     ",
"                                                    3 -   F 8 n                                     ",
"                                                                                                    "
};
