/* XPM */
static char *result[] = {
/* columns rows colors chars-per-pixel */
"50 50 107 2 ",
"   c #000002",
".  c #0C0804",
"X  c #00010A",
"o  c #000B0D",
"O  c #140101",
"+  c #1A0000",
"@  c #130E06",
"#  c #1B0E06",
"$  c #150F09",
"%  c #0F100B",
"&  c #13120D",
"*  c #1F150D",
"=  c #000E10",
"-  c #001311",
";  c #0E1A16",
":  c #171510",
">  c #191611",
",  c #1A1914",
"<  c #230E03",
"1  c #310D05",
"2  c #271005",
"3  c #2E1505",
"4  c #24160C",
"5  c #25180F",
"6  c #2D1A0D",
"7  c #321505",
"8  c #361907",
"9  c #3C1B06",
"0  c #331A0A",
"q  c #3C1D09",
"w  c #261D16",
"e  c #2D1D12",
"r  c #351F11",
"t  c #3D200E",
"y  c #2B2118",
"u  c #3D2211",
"i  c #312218",
"p  c #431D06",
"a  c #421E09",
"s  c #462107",
"d  c #4B2307",
"f  c #44210A",
"g  c #4B240B",
"h  c #4E280E",
"j  c #532607",
"k  c #52260A",
"l  c #54290D",
"z  c #5C2C0D",
"x  c #432412",
"c  c #4B2711",
"v  c #442815",
"b  c #4C2A12",
"n  c #552C12",
"m  c #5B2E11",
"M  c #522F19",
"N  c #563016",
"B  c #5D3114",
"V  c #5B3218",
"C  c #612E0D",
"Z  c #65310E",
"A  c #6A330F",
"S  c #643313",
"D  c #6D3611",
"F  c #6E3814",
"G  c #643518",
"H  c #69371A",
"J  c #66391A",
"K  c #6B3A1A",
"L  c #703712",
"P  c #733913",
"I  c #793D16",
"U  c #723D1B",
"Y  c #7A3F19",
"T  c #774217",
"R  c #7D4317",
"E  c #76411E",
"W  c #7C421C",
"Q  c #7D4420",
"!  c #7F4820",
"~  c #83451D",
"^  c #89471F",
"/  c #86481E",
"(  c #89491F",
")  c #814621",
"_  c #844922",
"`  c #8C4C22",
"'  c #914F23",
"]  c #845021",
"[  c #8F5123",
"{  c #945226",
"}  c #995427",
"|  c #975A26",
" . c #9C5C26",
".. c #975428",
"X. c #9C5629",
"o. c #9E5929",
"O. c #A25B2B",
"+. c #A85F2D",
"@. c #9F622A",
"#. c #A6612C",
"$. c #AA652D",
"%. c #AE692E",
"&. c #B26D2F",
"*. c #B3702F",
"=. c #B46E30",
"-. c #B67230",
";. c #B97431",
/* pixels */
"h D P P L D P g l L P / } O.} X.{ ' K T &.-.$.m C R ' X.` P S 2 f D P ' | ` R F k ` { } } R a S / I ",
"o q l z S D P q 6 P P A P ^ ~ I P p H #.-.-.#.Q k P L L L C q G _ F Z P A A C j q D D L D L F 8 z L ",
"g C l j a p p 9 e m S P P Z A P l g I o.%.&.O.} V m P L C b ' +.;.#.n l S n K ` K l P D P L l r 4 l ",
"P ~ I P Y R / R 6 6 m z A P I l j P A ~ X.o.} } ~ h l m f B U U O.$.n 1 W X.&.;.#.G C I D l K ` ) G ",
" .&.$.$.%.%.-.{ 9 P O._ n z l # f S P A ~ ~ I L P L t Z P A l j n m C | ;.;.;.;.-.+.n l z Q $.=.%.$.",
"-.&.%.#.#.$.} K Z  .;.%.` Q W ` _ m S P A A A A A I z g D I I Y P C / =.*.%.#.O./ / F N X.O.+.%.-.-.",
"$.} X.X.X.) x z I &.;.#.+.+.+.O.O.) # l P P P P P Z 9 b h z Z z k z P | O.[ D D A A S ` O.~ Y ~ } O.",
"O.X.' { E s S z n _ _ G J Y K g h m m g z z l l l G _ %.{ m f S W F S { ( L D L L P C H P A L L L L ",
"/ Y D p d I Y A Z i X 8 Z D C T / L L D C l F F K  .-.=.O.P Y O.` x ) ' A D L L D L S z P L S C C D ",
"C d 7 m ` X.} ( P x n g ' %.%.-.=.' L Y ~ ` } X.K ` %.#.X.' } O.X.n Q X.` P D L L L C n z s g H S q ",
"> m ' $.&.=.#.} n ` X.n } -.-.-.&.X.' O.O.O.o.O.W n ' ` { O.X.X._ s ) $.O./ L A D D k 8 l T { O.O.V ",
"i W $.*.-.#.O.H j } } l ^ %.*.-.-.O.#.&.*.*.&.%...V Z A ^ X.` I j m #.-.%.X.{ ` / R n I ' +.#.*.%.Q ",
"C n O.-.#.O._ n A ` X.m L { #.*.%.%.-.-.;.*.;.%.X.K C P P I Z l 8 Y %.;.=.O.X.O.O.' G O.%.&.-.-.#.Q ",
"P p Q +.O.` f C A ~ O.U j / X.O.X.#.%.&.&.&.*.$.O.K 9 L D l B ~ S I O.%.%.O.X.{ / l m O.-.*.-.-.{ G ",
"} I a K K s 8 S L I O.` a L ~ ' ' ^ ~ ~ ' } X.X.X.V & n h G { X.m P ~ ` ` ^ ` I j $ D } O.#.O.{ S ` ",
"#.{ L < + ` K l L P X.O.U l L A D D A S S L P Y ' J X V X.&.%.X.K Z L D A P C f r q C ` ' ~ I z 9 P ",
"%.X.( f { ;...k D I { } ( f S P A L L L P D D Z I E 4 ` -.;.#.X.T k P L P j r = ) U z I P Z z l 6 z ",
"-.O.E ! ;.-.%.G l P P P P S 9 D I L D L L L P D P z W } #.#.X.' z l I D k n r M O.U C D g G W ` ' m ",
"$.U Q =.-.-.#.K % Z P D D I z 3 C L P P L L P L I z / O.X.X.X.I Z a l 3 V O.J ` O.` a S ) X.$.%.%.Q ",
"Q J #.-.=.@.O.W y t z L L Z h * o h Z S D A S S Z g U ~ Y Y P D L H j f ..O.G { +.W x } &.*.&.-.%.) ",
"K O.#.=.O.~ ` E : q a f f l { { M o q g g g s h f . z L D D D D P z n { %.%.m Y ' l W O.#.-.&.&.+.U ",
"W o.o...Y A I m l P F A I { o.o.O.B Q ~ A D D L P z s S L L P P Z x { &.-.=.J C L l { O.O.#.O.O.} G ",
"C ~ ` P A P l j P L I { X.#.&.O.+.` K } ( Y P P P ( ` G z P P Z < Q -.-.=.+.Q l D h ` ' ` / ~ ( m _ ",
"k P A S D l h ~ P S R o.O.*.-.-.$.O.J _ #.&.X.} } O.O.X.K g l H W J X.=.=.%...k C z D A D D D l B O.",
"p s l a 5 q W X.P D I X.=.-.-.-.#.O._ [ -.;.=.+.' ` } O.' x ` O.O.l C ' $.-.&.) 2 m I P F D I s ) O.",
"} P ) ) e g ` X.I A P } #.%.-.-.O.o.` [ %.#.-.#.I A Y } ` Q +.#._ l / ' %.-.=.%._ k l D P I D h P Y ",
"-.O.O.O.H j } O.Y A D { o.X.+.%.o.O.` H / X.+.' D L S I G ` X.' F C ^ } +.&.=.-.-.o.K S S l 1 f S D ",
"#.{ { +.W g ' } I D D ` O.X.X.o.X.O.` j D / ' L D D I C G ` P L l Z P Y ` ' O.#.%.$.O.` c ~ X._ H k ",
"~ D / O...G s P L D D D / } ' ^ X.O.`   m P L D L P S 8 R ^ A L k l P S D D P ~ ' { O.) Y =.;.+.X.' ",
"A A ' O.X.O.K f L P P P A P L A Y { G k f l D L S n - g P L P D 0 8 P P L L D A D P D G X.O.' ' X.} ",
"L D ` ' ( ` ' l 8 m C Z P A S S h f S P P l f h 0 , x g S D l # u S s D L L P L L L C U } Y A L P S ",
"P P D A C s 9 g k z m n 8 h h k C P P D L P L L 7 n O.) 9 p z F K } S a z S D S S z h S I A D z l K ",
"z z z g 8 l S L A ' #.W d P D P P D D S A D P D g [ O.} ( / |  .E { { Z z l j j s l k s S C G W { %.",
"K S l n m P P L ~ %.%.V S I D A P I I I ' ` A Z m ` O.#.&.$.#.O.W W +.` P L Y Y Y Y D n m H ~ { ' ` ",
"O.O.( S S D L ` O.&.;.W p P I { X.o.+.$.&.$.~ I z U X.%.-.#.} o.U | -.o.' ` } O.#.} W z Z D P D D D ",
"X.X.O.E j I ' +.O.#.;.o.m z ~ #.=.&.-.-.-.&.} ` G D I ` } o.X.{ E -.-.O.X.O.#.-.-.+.Q c U d g Z C S ",
"/ P ' ` d Y } %.%.X.#.+.` p T O.%.=.-.$.#.O.O.' C L D A L P I S @.;.%.o.X.#.*.;.$.X.S K O.` U z m h ",
"D D I H l R } O.%.O.' ( O.E H O.' ` ..O.X.o.o.Q l L P D P P j U ;.;.$.X.} o.&.*.O.X.B C ( O.O.} X.` ",
"S C f 4 z ( O.X.} } ` C ~ O.E n f p g G W ` P 8 X C P D D n a / $.$.O.~ T } O.O.X.` h P A Y { O.O.G ",
"z C h $ z Y ' O.Y D Y D Z ` ` d Y ` I l q s c S K f q f h a l P ` X.W D P { o.` P x , f D L L { Q U ",
"{ ' ` U f Z L ~ P L D L D P Y G X.#.` P l _ O.&.O.` D F Y W n D P I D L D Y Y z O o c a 9 h n a # I ",
"X.O.o.O.Q k L D D L F L P Z k ] =.#.X.I 7 ) O.&.O.X.X.} } O.Y j P D D L P C g G _ | X.| R D S I n Z ",
"$.&.$.} O.) z P L P P L C B ..;.=.O.X.K K d G ` X.X.o.X.O.+.} n Z P D P A S ` O.-.;.=.-.%.} ' O.` h ",
";.-.-.%.O.O.U l L D S f n { %.-.%.{ K ` ` F S l R } X.X.%.-.#.} m C D l 0 ` +.X.$.=.-.-.%.O.X.X.o.K ",
"%.*.;.;.$.O.) 8 g a X 5 F P ^ { ( l ` ' C L / U k Y } O.=.-.-.%.Q @ v e f S ~ } X.+.%.O.O.X.O.} X.X.",
"{ O.&.$.O.O.H j l W E 0 S L A D D l ` / D D A / K l Y { #.=.-.#._ ; w l A f A P ~ ` } X.X.X.' X.X.o.",
"I ~ ` ' } Y g ~ ~ X.O._ n P P D P Z ~ ( A P A I _ m C ~ } #.#.} G u P ` ' l k P A D I ` ` Y D / X./ ",
"P D A P Y l S X.X.} O.%._ 7 C P I C ) } P A A L { Y Z P / / P z a / O.=.%./ p l P D D A D D D D I Z ",
"p Z P D P d T O.} } O.%.U J U n C u S { X.` R W ` G q m C s 9 9 l R ` %.$.X.` # l P L D L P L P S 7 ",
"Q B z P l 6 ' X.L _ O.' J +.+.` { ) k Y ' ' / I C l C l k m H ~ H A L ' X.O.{ K K s D L D F D D q P "
};
